<?xml version="1.0" standalone="no"?>
<!DOCTYPE svg PUBLIC "-//W3C//DTD SVG 20010904//EN"
 "http://www.w3.org/TR/2001/REC-SVG-20010904/DTD/svg10.dtd">
<svg version="1.0" xmlns="http://www.w3.org/2000/svg"
 width="2482.000000pt" height="3508.000000pt" viewBox="0 0 2482.000000 3508.000000"
 preserveAspectRatio="xMidYMid meet">

<g transform="translate(0.000000,3508.000000) scale(0.100000,-0.100000)"
fill="#000000" stroke="none">
<path d="M5 17540 c0 -12576 1 -13738 2 -4102 l3 13442 4655 0 4655 0 -2 -422
-3 -423 -3687 1 -3688 0 0 -10875 0 -10876 3690 3 3690 2 0 -2145 0 -2145
7750 0 7750 0 0 17540 0 17540 -7750 0 -7750 0 0 -1490 0 -1490 -4655 0 -4655
0 -3 1493 c-1 820 -2 -6403 -2 -16053z m22237 16525 c41 -71 88 -155 105 -185
l31 -55 -92 -160 c-133 -231 -130 -227 -142 -207 -12 19 -154 263 -192 330
l-24 42 97 168 c126 216 126 216 134 206 4 -5 41 -67 83 -139z m396 -687 c42
-75 234 -408 327 -568 125 -216 298 -516 620 -1075 54 -93 123 -213 153 -265
31 -52 72 -124 92 -160 21 -36 72 -126 115 -200 43 -74 95 -164 115 -200 l38
-65 -686 -3 c-377 -1 -689 1 -693 5 -4 5 -50 82 -102 173 -52 91 -124 217
-161 280 -58 99 -66 118 -57 138 14 30 201 355 211 365 4 5 19 -11 32 -35 14
-24 85 -146 158 -273 73 -126 140 -242 149 -257 l16 -28 238 0 237 0 -30 53
c-17 28 -94 163 -173 299 -78 136 -156 271 -173 300 -17 29 -92 159 -166 288
-75 129 -193 334 -263 455 -70 121 -156 270 -192 332 l-63 112 43 73 c24 40
74 126 111 191 38 64 69 117 71 117 2 0 17 -24 33 -52z m-791 -230 c83 -145
217 -378 299 -518 81 -140 169 -294 197 -343 l49 -87 -83 -143 c-45 -78 -96
-166 -112 -194 -16 -29 -30 -53 -32 -53 -2 0 -25 37 -51 83 -26 45 -62 107
-80 137 -17 30 -82 143 -144 250 -61 107 -130 226 -153 263 l-40 68 -51 -80
c-28 -44 -63 -99 -77 -123 -15 -24 -48 -76 -73 -116 l-46 -73 157 -272 c86
-150 222 -384 301 -522 258 -446 332 -576 332 -580 0 -3 -457 -5 -1015 -5
-558 0 -1015 3 -1015 8 0 4 6 16 14 27 7 11 75 128 151 260 76 132 163 283
193 335 31 52 86 148 123 213 l67 118 105 -183 c58 -101 108 -190 112 -198 3
-9 -19 -57 -49 -110 l-54 -95 350 -3 c193 -1 353 0 355 2 3 3 -64 123 -148
268 -83 145 -160 277 -169 294 -10 16 -53 91 -96 165 -167 289 -164 282 -150
304 7 11 58 99 113 195 55 96 190 330 300 520 110 190 213 369 229 397 16 29
31 53 34 53 3 0 73 -118 157 -262z m-20799 -1790 c18 -18 14 -46 -7 -58 -11
-5 -42 -10 -70 -10 l-51 0 0 -163 c0 -113 -4 -167 -12 -175 -18 -18 -56 -14
-68 7 -6 11 -10 87 -10 175 l0 156 -49 0 c-27 0 -56 3 -65 6 -19 7 -22 60 -3
67 28 12 323 7 335 -5z m228 -114 c55 -26 79 -69 79 -139 0 -72 -24 -119 -75
-146 -72 -39 -176 -13 -214 52 -27 45 -27 133 -1 178 38 65 136 91 211 55z
m204 -224 c10 -6 15 -26 15 -59 0 -57 -31 -101 -72 -101 -29 0 -31 25 -3 42
11 7 20 17 20 23 0 6 -9 16 -20 23 -22 14 -27 51 -8 70 14 14 47 15 68 2z
m20680 -685 l0 -355 -70 0 -70 0 0 355 0 355 70 0 70 0 0 -355z m-1637 314
c36 -10 127 -85 127 -105 0 -6 -14 -21 -31 -33 l-32 -24 -31 36 c-54 61 -103
73 -150 36 -20 -16 -26 -29 -26 -59 0 -44 24 -67 120 -115 127 -64 170 -115
170 -206 0 -176 -217 -276 -381 -175 -28 17 -59 45 -70 62 l-19 31 46 24 c35
18 48 21 51 11 12 -32 57 -72 89 -78 67 -12 114 28 105 91 -4 31 -28 51 -115
101 -133 76 -159 111 -159 206 2 150 145 242 306 197z m1274 -10 c38 -18 103
-82 103 -100 0 -9 -70 -53 -74 -48 -2 2 -9 14 -15 27 -16 30 -69 62 -104 62
-35 0 -87 -49 -87 -81 0 -31 54 -77 145 -124 95 -50 141 -97 150 -157 18 -120
-61 -225 -186 -248 -102 -19 -201 14 -256 87 -29 38 -29 37 29 69 27 14 29 13
71 -31 36 -37 50 -45 79 -45 49 0 88 32 88 74 0 47 -22 71 -113 120 -150 82
-189 150 -156 270 14 50 73 113 124 131 61 21 151 19 202 -6z m-779 -224 c1
-144 -2 -250 -9 -285 -22 -104 -98 -150 -249 -150 l-60 0 0 45 0 45 39 0 c23
0 48 8 62 19 24 19 24 20 27 278 1 142 5 264 7 271 3 9 28 12 92 10 l88 -3 3
-230z m2017 -6 c11 -10 45 -59 75 -108 l55 -91 3 105 3 105 35 0 34 0 -2 -217
-3 -217 -25 -13 c-38 -19 -56 -1 -150 153 l-85 139 -3 -142 -3 -143 -34 0 -35
0 0 194 c0 107 4 206 10 221 17 46 82 53 125 14z m-657 2 c-1 -5 -21 -43 -42
-83 l-40 -75 21 -39 c11 -21 44 -81 72 -133 28 -52 51 -96 51 -98 0 -1 -33 -3
-74 -3 l-75 0 -55 98 c-30 53 -56 102 -58 107 -1 6 25 61 60 123 l63 112 40 0
c22 0 39 -4 37 -9z m222 -17 c39 -101 74 -174 80 -167 4 4 24 50 45 101 37 90
38 92 71 92 19 0 34 -3 34 -6 0 -10 -253 -599 -263 -611 -12 -17 -67 -17 -67
0 0 6 22 65 50 129 l49 118 -33 77 c-19 43 -54 122 -80 177 -25 54 -46 102
-46 107 0 5 34 9 75 9 72 0 76 -1 85 -26z m1060 -4 c0 -30 0 -30 -59 -30 -75
0 -91 -14 -91 -81 l0 -49 70 0 70 0 0 -30 0 -30 -70 0 -70 0 0 -47 c0 -27 4
-53 8 -60 4 -6 38 -13 77 -15 l70 -3 3 -33 3 -34 -131 4 c-178 4 -170 -6 -170
220 0 166 0 169 25 193 23 24 30 25 145 25 l120 0 0 -30z m450 -5 l0 -34 -57
-3 -58 -3 -3 -182 -2 -183 -70 0 -70 0 0 185 0 185 -60 0 -60 0 0 35 0 35 190
0 190 0 0 -35z m-8925 -830 c21 -8 39 -25 45 -40 13 -35 13 -35 -10 -35 -11 0
-20 4 -20 9 0 36 -87 55 -124 28 -40 -29 -5 -66 83 -88 87 -21 116 -86 62
-140 -25 -24 -37 -29 -81 -29 -61 0 -102 19 -118 55 -17 36 -15 45 8 45 11 0
20 -6 20 -14 0 -8 12 -24 26 -35 54 -43 144 -13 130 42 -5 21 -15 29 -49 37
-86 23 -108 32 -124 56 -24 37 -7 84 37 106 43 22 70 22 115 3z m145 -45 c0
-47 1 -50 19 -40 30 15 82 12 103 -7 15 -13 18 -32 18 -110 0 -76 -3 -93 -15
-93 -12 0 -15 15 -15 78 0 92 -12 115 -55 110 -40 -4 -55 -37 -55 -120 0 -54
-3 -68 -15 -68 -13 0 -15 23 -15 150 0 127 2 150 15 150 11 0 15 -12 15 -50z
m901 -62 l74 -113 3 113 c2 104 4 112 22 112 19 0 20 -7 20 -150 0 -143 -1
-150 -20 -150 -14 0 -42 33 -97 116 l-78 117 -3 -117 c-2 -108 -4 -116 -22
-116 -19 0 -20 7 -20 150 l0 150 24 0 c19 0 38 -22 97 -112z m769 -38 c0 -127
-2 -150 -15 -150 -12 0 -15 19 -15 115 0 63 -3 115 -7 115 -5 0 -17 -7 -27
-15 -11 -8 -26 -15 -33 -15 -25 0 -13 28 22 49 20 11 38 27 41 36 4 8 12 15
20 15 11 0 14 -28 14 -150z m255 126 c29 -29 39 -77 33 -156 -6 -82 -30 -114
-89 -118 -37 -2 -49 1 -69 23 -21 22 -25 38 -28 101 -5 86 0 111 29 147 28 36
89 38 124 3z m511 5 c41 -25 58 -75 52 -153 -4 -50 -9 -64 -36 -91 -31 -30
-37 -32 -121 -35 -83 -4 -89 -3 -86 15 2 10 4 78 4 151 l1 132 78 0 c58 0 85
-5 108 -19z m144 -33 c0 -40 3 -49 12 -40 20 20 85 15 108 -8 17 -17 20 -33
20 -110 0 -83 -1 -90 -20 -90 -18 0 -20 7 -20 83 0 88 -8 107 -46 107 -42 0
-54 -25 -54 -111 0 -72 -2 -79 -20 -79 -19 0 -20 7 -20 150 0 143 1 150 20
150 17 0 20 -7 20 -52z m1200 -28 c0 -44 4 -80 8 -80 4 0 26 18 47 40 21 22
48 40 59 40 17 0 15 -6 -17 -38 -20 -21 -37 -41 -37 -45 0 -5 18 -35 40 -67
22 -32 40 -61 40 -64 0 -4 -8 -6 -19 -6 -11 0 -33 22 -56 57 -36 54 -38 56
-52 37 -8 -11 -13 -35 -11 -56 3 -31 0 -38 -14 -38 -16 0 -18 13 -18 150 0
127 2 150 15 150 12 0 15 -16 15 -80z m764 -32 c21 -62 40 -120 43 -128 3 -8
24 41 47 110 39 115 45 125 69 128 l27 3 0 -150 c0 -128 -2 -151 -15 -151 -12
0 -15 20 -15 116 0 67 -4 113 -9 109 -5 -3 -26 -55 -46 -115 -50 -149 -61
-148 -110 3 -21 61 -41 116 -46 122 -5 5 -9 -43 -9 -113 0 -102 -2 -122 -15
-122 -13 0 -15 23 -15 150 l0 150 29 0 c28 0 30 -4 65 -112z m956 91 c0 -25
-33 -22 -38 4 -2 12 3 17 17 17 15 0 21 -6 21 -21z m921 -129 c33 -80 59 -146
59 -147 0 -2 -11 -3 -24 -3 -19 0 -26 8 -36 45 l-13 45 -66 0 -67 0 -14 -42
c-11 -31 -21 -44 -38 -46 l-22 -3 19 48 c11 26 37 94 58 151 34 94 40 103 62
100 21 -3 31 -21 82 -148z m1439 128 c25 -27 26 -72 3 -95 -17 -16 -17 -19 11
-46 24 -23 27 -33 22 -60 -12 -58 -36 -72 -136 -75 l-90 -4 0 151 0 151 85 0
c74 0 87 -3 105 -22z m350 2 c0 -11 -7 -20 -15 -20 -8 0 -15 9 -15 20 0 11 7
20 15 20 8 0 15 -9 15 -20z m-7869 -70 c25 -14 49 -62 49 -100 0 -38 -24 -86
-49 -100 -31 -16 -94 -11 -120 9 -25 19 -39 88 -27 135 14 56 91 86 147 56z
m122 -2 c4 -10 7 -10 18 0 23 21 83 15 108 -12 31 -33 39 -102 17 -144 -21
-41 -50 -55 -97 -49 l-39 5 0 -44 c0 -37 -3 -44 -20 -44 -19 0 -20 7 -20 150
0 123 3 150 14 150 8 0 16 -6 19 -12z m773 -11 c22 -19 28 -34 32 -80 4 -52 2
-58 -26 -87 -33 -33 -80 -40 -125 -19 -62 28 -64 168 -3 197 38 19 93 14 122
-11z m1697 6 c11 -13 16 -44 19 -111 3 -81 1 -92 -14 -92 -9 0 -18 5 -20 11
-3 9 -9 9 -25 0 -38 -20 -100 -14 -117 11 -36 50 -11 87 70 103 53 10 59 14
59 36 0 21 -5 24 -39 27 -32 3 -43 -1 -57 -19 -9 -12 -21 -19 -28 -15 -16 10
-14 23 9 46 27 27 119 28 143 3z m102 -50 c29 -112 29 -112 65 25 15 58 45 59
60 2 5 -22 15 -59 22 -82 l11 -43 25 83 c19 63 30 82 43 82 15 0 17 -5 9 -27
-55 -176 -62 -193 -79 -193 -14 0 -22 16 -36 68 -10 37 -21 73 -25 80 -3 7
-15 -23 -25 -67 -16 -70 -21 -81 -39 -81 -18 0 -25 15 -50 98 -16 53 -31 103
-33 110 -3 7 3 12 14 12 16 0 24 -13 38 -67z m429 51 c11 -11 16 -34 16 -78 0
-35 3 -78 6 -95 6 -27 4 -31 -15 -31 -12 0 -21 6 -21 16 0 14 -2 14 -22 0 -23
-17 -84 -21 -105 -8 -6 4 -16 19 -22 34 -16 43 16 75 85 84 33 4 58 12 61 20
16 42 -73 62 -101 23 -11 -16 -18 -19 -32 -11 -16 9 -15 12 9 36 21 21 36 26
76 26 32 0 55 -6 65 -16z m207 6 c22 -12 26 -50 5 -50 -8 0 -17 7 -20 16 -4
11 -17 14 -43 12 -30 -2 -38 -7 -38 -23 0 -15 12 -23 50 -33 64 -18 75 -28 75
-65 0 -47 -25 -67 -82 -67 -50 0 -88 24 -88 55 0 22 23 18 38 -5 15 -24 73
-27 92 -5 17 21 -1 41 -44 49 -43 8 -86 42 -86 67 0 33 36 59 81 59 22 0 49
-5 60 -10z m424 4 c20 -8 45 -56 45 -89 0 -25 -1 -25 -81 -25 -79 0 -80 0 -73
-22 11 -37 25 -48 60 -48 23 0 38 6 46 20 13 21 48 28 48 10 0 -6 -11 -22 -25
-35 -31 -32 -101 -35 -134 -6 -46 40 -48 131 -3 176 25 25 78 34 117 19z m125
-6 c0 -9 3 -9 12 0 7 7 25 12 40 12 22 0 28 -5 28 -20 0 -17 -6 -20 -27 -18
-37 4 -53 -30 -53 -114 0 -54 -3 -68 -15 -68 -12 0 -15 19 -15 110 0 91 3 110
15 110 8 0 15 -5 15 -12z m731 -4 c9 -11 16 -53 19 -111 4 -82 3 -93 -12 -93
-9 0 -18 6 -21 13 -3 10 -9 10 -26 0 -29 -18 -96 -16 -115 3 -9 8 -16 26 -16
40 0 37 33 62 90 70 29 4 54 13 57 21 16 41 -73 61 -101 22 -15 -22 -36 -18
-36 6 0 41 131 64 161 29z m104 6 c4 -7 12 -7 25 0 10 5 34 10 54 10 53 0 66
-26 66 -132 0 -81 -2 -88 -20 -88 -19 0 -20 7 -20 89 0 93 -4 101 -50 101 -38
0 -50 -27 -50 -111 0 -72 -2 -79 -20 -79 -19 0 -20 7 -20 110 0 89 3 110 14
110 8 0 18 -5 21 -10z m337 -7 c10 -9 18 -22 18 -30 0 -18 -25 -17 -40 3 -18
21 -84 15 -88 -8 -2 -12 13 -21 62 -38 35 -11 67 -28 70 -36 21 -55 -13 -94
-81 -94 -54 0 -65 5 -82 37 -15 29 -14 33 7 33 9 0 23 -9 30 -21 18 -29 86
-24 90 8 3 18 -5 24 -50 38 -29 10 -59 22 -65 28 -18 13 -16 62 3 81 21 22
102 21 126 -1z m108 -94 c0 -100 -2 -110 -17 -107 -16 3 -18 18 -21 111 -3
102 -2 107 18 107 19 0 20 -6 20 -111z m207 96 c13 -9 27 -34 33 -55 14 -50
-2 -113 -33 -135 -28 -19 -96 -19 -124 0 -49 34 -53 136 -8 181 29 29 98 33
132 9z m116 3 c4 -10 7 -10 18 0 18 17 84 15 103 -3 18 -18 27 -80 24 -152 -2
-43 -6 -53 -20 -53 -16 0 -18 10 -18 84 0 93 -9 110 -57 104 -38 -4 -53 -38
-53 -120 0 -54 -3 -68 -15 -68 -12 0 -15 19 -15 110 0 88 3 110 14 110 8 0 16
-6 19 -12z m808 2 c13 -7 19 -7 19 0 0 5 7 10 15 10 13 0 15 -23 15 -150 0
-127 -2 -150 -15 -150 -11 0 -15 12 -15 50 0 47 -1 50 -19 40 -38 -20 -78 -12
-105 21 -37 43 -37 129 -1 164 26 27 72 33 106 15z m151 -82 l3 -93 31 -3 c51
-5 64 17 64 109 0 69 2 79 18 79 16 0 18 -11 17 -107 0 -95 -2 -108 -17 -111
-10 -2 -18 1 -18 7 0 6 -12 5 -32 -3 -37 -16 -83 -5 -98 24 -6 10 -10 57 -10
104 0 79 2 86 20 86 18 0 20 -8 22 -92z m329 82 c22 -12 49 -61 49 -90 0 -18
-6 -20 -80 -20 -68 0 -80 -2 -80 -17 0 -48 88 -75 110 -33 14 26 40 26 40 1 0
-29 -38 -51 -88 -51 -35 0 -49 6 -74 30 -28 29 -30 35 -26 87 4 46 10 61 32
80 29 25 83 31 117 13z m129 -2 c0 -9 3 -9 12 0 17 17 83 15 98 -3 11 -13 15
-13 33 0 12 8 36 15 54 15 50 0 63 -28 63 -132 0 -81 -2 -88 -20 -88 -18 0
-20 8 -22 93 -3 91 -3 92 -29 95 -45 5 -59 -20 -59 -109 0 -72 -2 -79 -20 -79
-18 0 -20 8 -22 93 l-3 92 -33 3 c-27 3 -34 -1 -42 -23 -6 -14 -10 -58 -10
-96 0 -62 -2 -69 -20 -69 -19 0 -20 7 -20 110 0 103 1 110 20 110 11 0 20 -5
20 -12z m864 -4 c12 -11 16 -35 16 -87 0 -40 3 -82 6 -94 5 -18 2 -23 -14 -23
-11 0 -22 5 -24 11 -3 9 -10 9 -26 0 -13 -7 -42 -11 -65 -9 -34 2 -44 8 -55
30 -25 52 23 97 103 98 32 0 43 13 34 38 -7 18 -16 22 -47 22 -30 0 -43 -6
-55 -22 -11 -17 -18 -20 -27 -12 -14 14 5 51 30 58 39 10 109 5 124 -10z m106
-94 c0 -91 -3 -110 -15 -110 -12 0 -15 19 -15 110 0 91 3 110 15 110 12 0 15
-19 15 -110z m111 73 l23 -36 31 37 c19 23 39 37 49 35 14 -3 11 -12 -19 -55
l-36 -52 35 -50 c41 -57 43 -62 17 -62 -10 0 -30 17 -45 41 l-28 41 -30 -41
c-17 -24 -38 -41 -49 -41 -22 0 -22 1 23 67 15 23 28 44 28 48 0 4 -13 26 -30
50 -35 51 -36 55 -11 55 11 0 29 -15 42 -37z m300 27 c32 -18 52 -68 46 -118
-6 -59 -39 -91 -92 -94 -72 -2 -105 35 -105 121 0 66 32 101 90 101 23 0 50
-5 61 -10z m-7258 -184 c7 -18 -1 -26 -25 -26 -11 0 -18 7 -18 20 0 23 35 28
43 6z m697 -20 c0 -19 -7 -42 -16 -51 -22 -21 -29 -13 -13 16 9 17 9 24 0 27
-20 7 -13 42 9 42 16 0 20 -7 20 -34z m4010 1 c0 -34 -23 -77 -35 -65 -3 3 0
16 7 28 10 18 10 24 1 27 -22 8 -15 43 7 43 16 0 20 -7 20 -33z m2690 2 c0
-36 -17 -72 -30 -64 -6 4 -5 15 3 27 9 16 9 22 0 25 -22 8 -15 43 7 43 16 0
20 -7 20 -31z m-4405 -184 c26 -13 55 -49 55 -70 0 -15 -35 -1 -52 20 -36 46
-136 29 -126 -22 4 -20 37 -39 95 -53 61 -15 87 -40 87 -85 0 -57 -38 -85
-114 -85 -67 0 -104 24 -116 73 -5 22 -3 27 14 27 12 0 22 -9 26 -23 11 -45
95 -62 136 -29 18 14 21 25 16 45 -5 21 -15 29 -49 37 -80 20 -112 36 -126 62
-21 38 -5 78 39 100 43 22 72 23 115 3z m1240 1 c36 -15 71 -59 60 -76 -9 -15
-35 -12 -35 4 0 37 -94 61 -141 36 -45 -25 -64 -122 -34 -180 22 -42 82 -59
138 -39 36 12 42 18 45 47 3 32 3 32 -42 32 -34 0 -46 4 -46 15 0 12 14 15 66
15 l65 0 -3 -52 c-3 -47 -7 -55 -37 -75 -44 -30 -132 -32 -177 -4 -77 47 -86
192 -16 254 40 36 104 45 157 23z m1020 0 c36 -15 71 -59 60 -76 -9 -14 -35
-13 -35 2 0 27 -33 48 -77 48 -57 0 -81 -14 -99 -55 -50 -121 47 -226 156
-170 23 12 30 22 30 45 0 29 -2 30 -45 30 -33 0 -45 4 -45 15 0 12 14 15 65
15 l65 0 0 -53 c0 -52 -1 -54 -39 -75 -49 -28 -130 -30 -173 -4 -57 33 -81
111 -58 193 22 79 113 119 195 85z m-3970 -116 c21 -66 42 -120 45 -120 3 0
23 53 45 118 37 109 42 117 68 120 l27 3 0 -150 c0 -144 -1 -151 -20 -151 -18
0 -20 8 -22 117 l-3 117 -40 -117 c-53 -155 -63 -155 -116 2 -22 63 -41 117
-44 119 -3 3 -5 -49 -5 -116 0 -115 -1 -122 -20 -122 -19 0 -20 7 -20 150 l0
150 33 0 33 0 39 -120z m2435 70 c0 -47 1 -50 19 -40 30 15 82 12 103 -7 15
-13 18 -32 18 -110 0 -76 -3 -93 -15 -93 -12 0 -15 14 -15 69 0 94 -11 121
-49 121 -45 0 -61 -31 -61 -117 0 -58 -3 -73 -15 -73 -13 0 -15 23 -15 150 0
127 2 150 15 150 11 0 15 -12 15 -50z m2500 -45 c0 -88 1 -95 20 -95 13 0 20
-7 20 -20 0 -13 -7 -20 -20 -20 -16 0 -20 -7 -20 -36 0 -28 -3 -35 -17 -32
-12 2 -19 14 -21 36 l-3 32 -60 0 c-79 0 -83 14 -28 93 119 172 129 175 129
42z m235 71 c29 -29 39 -77 33 -156 -6 -86 -30 -115 -94 -115 -44 0 -50 3 -71
34 -19 28 -23 47 -23 108 0 107 27 153 92 153 28 0 46 -7 63 -24z m234 -2 c25
-32 27 -67 5 -89 -15 -15 -15 -18 4 -38 54 -59 14 -147 -67 -147 -53 0 -69 7
-86 41 -19 36 -19 39 3 39 11 0 24 -11 30 -25 9 -20 19 -25 47 -25 76 0 86 96
12 114 -39 10 -45 28 -11 35 29 5 44 21 44 45 0 50 -71 66 -92 21 -11 -24 -28
-32 -41 -19 -8 8 11 45 32 61 9 7 35 13 58 13 33 0 46 -5 62 -26z m271 16 c0
-5 -18 -37 -40 -71 -36 -56 -60 -116 -75 -191 -3 -19 -12 -28 -24 -28 -17 0
-17 5 -9 52 10 56 59 171 77 182 25 16 7 25 -56 28 -55 2 -68 6 -71 21 -3 15
7 17 97 17 58 0 101 -4 101 -10z m175 4 c56 -22 71 -201 22 -268 -7 -10 -29
-21 -47 -25 -74 -16 -115 36 -115 144 0 74 9 109 35 135 20 20 71 27 105 14z
m285 -10 c0 -8 -11 -30 -24 -47 -37 -48 -75 -136 -82 -189 -5 -38 -11 -48 -25
-48 -12 0 -19 7 -19 19 0 36 39 146 69 194 l31 47 -70 0 c-63 0 -70 2 -70 20
0 19 7 20 95 20 80 0 95 -3 95 -16z m-3810 -29 c0 -28 4 -35 20 -35 11 0 20
-7 20 -15 0 -8 -9 -15 -20 -15 -18 0 -20 -7 -20 -76 0 -67 2 -76 20 -81 26 -7
26 -33 1 -33 -47 0 -51 8 -51 101 0 72 -3 89 -15 89 -8 0 -15 7 -15 15 0 8 7
15 15 15 10 0 15 10 15 28 0 16 3 32 7 35 15 15 23 5 23 -28z m-1927 -47 c22
-17 35 -208 14 -208 -7 0 -18 5 -25 12 -9 9 -15 9 -24 0 -16 -16 -89 -15 -110
2 -23 17 -23 68 0 89 10 9 39 20 64 23 61 9 76 18 62 41 -17 28 -78 29 -97 3
-12 -17 -19 -20 -33 -12 -16 9 -15 12 9 36 21 21 36 26 75 26 26 0 56 -6 65
-12z m107 3 c0 -5 13 -5 29 2 15 5 35 7 44 4 22 -8 10 -39 -12 -33 -34 11 -46
-10 -51 -96 -4 -69 -8 -83 -22 -86 -16 -3 -18 7 -18 107 0 92 3 111 15 111 8
0 15 -4 15 -9z m238 -3 c9 -9 12 -9 12 0 0 7 9 12 20 12 19 0 20 -7 20 -109 0
-59 -5 -122 -11 -140 -21 -60 -110 -81 -154 -36 -14 13 -25 29 -25 35 0 17 29
11 50 -10 24 -24 48 -25 78 -4 28 19 32 70 5 59 -48 -21 -72 -17 -103 13 -25
25 -30 39 -30 77 0 48 20 99 42 108 25 10 84 7 96 -5z m258 -2 c16 -12 20 -30
24 -110 4 -85 3 -96 -12 -96 -9 0 -18 5 -20 11 -3 9 -9 9 -25 0 -32 -16 -94
-14 -115 6 -10 9 -18 29 -18 44 0 33 26 53 80 64 65 12 71 16 68 38 -2 18 -11
23 -45 25 -33 2 -44 -1 -53 -17 -6 -12 -16 -18 -25 -15 -20 8 -19 20 5 44 24
24 106 28 136 6z m235 -15 c25 -25 29 -37 29 -82 0 -44 -5 -58 -27 -81 -36
-37 -99 -39 -140 -4 -25 22 -28 31 -28 86 0 55 3 64 28 86 41 35 99 33 138 -5z
m737 9 c11 -11 26 -36 31 -56 22 -80 -19 -144 -91 -144 -54 0 -83 19 -98 66
-15 46 -5 100 25 130 31 31 101 33 133 4z m112 -58 c0 -92 12 -115 55 -110 40
4 55 37 55 121 0 53 3 67 15 67 12 0 15 -19 15 -110 0 -91 -3 -110 -15 -110
-8 0 -15 7 -15 16 0 14 -1 14 -16 0 -20 -21 -83 -20 -106 1 -15 13 -18 32 -18
110 0 76 3 93 15 93 12 0 15 -15 15 -78z m1145 54 c45 -45 41 -147 -8 -181
-29 -21 -100 -19 -126 3 -28 22 -41 81 -30 130 11 50 40 72 96 72 33 0 50 -6
68 -24z m230 10 c16 -11 20 -30 23 -110 4 -81 2 -96 -11 -96 -8 0 -17 6 -20
13 -3 10 -9 10 -26 0 -29 -18 -96 -16 -115 3 -21 21 -20 67 2 87 9 8 38 18 63
22 62 9 77 19 63 42 -17 28 -78 29 -97 2 -16 -22 -37 -19 -37 6 0 39 113 62
155 31z m776 4 c55 -30 65 -144 14 -187 -38 -33 -108 -32 -139 2 -42 45 -38
148 7 180 25 17 89 20 118 5z m245 -4 c16 -12 20 -30 24 -110 4 -85 3 -96 -12
-96 -9 0 -18 5 -20 11 -3 9 -9 9 -25 0 -31 -16 -99 -14 -117 5 -22 21 -20 67
3 88 10 9 42 19 71 23 30 3 54 12 57 20 16 41 -73 61 -101 22 -8 -12 -19 -18
-25 -14 -16 9 -13 23 9 45 24 24 106 28 136 6z m-3116 -195 c0 -16 -9 -39 -20
-52 -22 -27 -25 -22 -11 15 7 17 7 26 -1 28 -6 2 -12 12 -14 21 -1 12 5 17 22
17 20 0 24 -5 24 -29z m2220 0 c0 -40 -9 -61 -26 -61 -12 0 -12 4 -2 21 10 17
10 23 1 26 -22 8 -15 43 7 43 15 0 20 -7 20 -29z m1020 -10 c0 -21 -6 -44 -13
-50 -20 -16 -28 -2 -14 21 9 16 9 22 0 25 -22 8 -15 43 7 43 17 0 20 -7 20
-39z m-21599 -132 c81 -27 125 -113 117 -223 -7 -81 -35 -135 -86 -164 -34
-19 -55 -22 -144 -22 -68 0 -108 4 -116 12 -8 8 -12 67 -12 200 0 168 2 188
18 197 23 14 181 14 223 0z m609 -25 c6 -14 10 -38 10 -54 0 -24 5 -29 27 -32
41 -4 43 -36 4 -51 l-31 -11 0 -88 0 -87 37 -3 c28 -2 39 -8 42 -22 8 -45 -94
-64 -140 -27 -21 17 -24 28 -27 125 -4 93 -7 106 -23 111 -25 8 -24 41 1 55
11 6 20 21 20 35 0 45 18 75 45 75 18 0 28 -7 35 -26z m19075 -124 c21 -66 42
-120 45 -120 3 0 23 53 45 118 37 109 42 117 68 120 l27 3 0 -151 c0 -139 -1
-151 -17 -148 -16 3 -19 19 -23 118 l-5 115 -40 -117 c-30 -88 -44 -118 -57
-118 -17 0 -20 6 -77 170 l-30 85 0 -127 c-1 -121 -2 -128 -21 -128 -19 0 -20
7 -20 150 l0 150 33 0 33 0 39 -120z m515 69 c0 -44 2 -50 14 -40 8 7 31 11
52 9 51 -4 79 -43 79 -108 0 -65 -28 -104 -79 -108 -21 -2 -45 3 -53 10 -13
10 -17 10 -20 1 -3 -7 -11 -13 -19 -13 -11 0 -14 27 -14 150 0 143 1 150 20
150 17 0 20 -7 20 -51z m807 29 c28 -26 30 -71 6 -95 -17 -17 -17 -19 5 -40
27 -27 29 -82 5 -112 -38 -46 -136 -41 -162 8 -19 35 -13 88 12 107 22 17 22
19 5 36 -25 25 -23 73 4 98 30 28 94 27 125 -2z m228 -3 c29 -29 32 -68 7 -93
-17 -17 -17 -19 5 -36 25 -19 31 -72 12 -107 -14 -27 -62 -47 -99 -41 -34 5
-80 43 -80 67 0 22 37 18 43 -5 6 -23 42 -39 70 -32 66 17 49 122 -20 122 -31
0 -26 22 7 30 31 7 44 31 36 63 -5 23 -12 27 -41 27 -28 0 -38 -5 -47 -25 -11
-24 -28 -32 -41 -19 -8 8 11 45 32 61 28 22 89 16 116 -12z m239 -5 c32 -38
42 -106 27 -175 -13 -58 -32 -81 -78 -94 -49 -14 -103 17 -103 60 0 17 25 9
38 -11 7 -12 23 -20 40 -20 33 0 45 8 61 37 12 23 15 85 3 67 -29 -44 -103
-39 -133 9 -27 45 -24 89 7 126 21 26 33 31 69 31 36 0 48 -5 69 -30z m225 11
c43 -43 52 -171 17 -240 -31 -58 -122 -58 -152 1 -35 68 -27 190 16 236 27 29
92 30 119 3z m241 -1 c11 -11 20 -27 20 -35 0 -22 -27 -18 -40 5 -14 26 -61
26 -84 1 -9 -10 -20 -36 -23 -57 l-6 -39 22 20 c56 50 141 5 141 -75 0 -86
-97 -135 -156 -79 -58 54 -57 197 1 255 31 31 96 33 125 4z m220 -75 c0 -88 1
-95 20 -95 13 0 20 -7 20 -20 0 -13 -7 -20 -20 -20 -16 0 -20 -7 -20 -35 0
-24 -5 -35 -15 -35 -10 0 -15 11 -15 35 l0 35 -65 0 c-48 0 -67 4 -71 14 -7
19 132 216 151 216 12 0 15 -19 15 -95z m230 0 c0 -88 1 -95 20 -95 13 0 20
-7 20 -20 0 -13 -7 -20 -20 -20 -16 0 -20 -7 -20 -35 0 -24 -5 -35 -15 -35
-10 0 -15 11 -15 35 l0 35 -65 0 c-59 0 -65 2 -65 21 0 26 128 209 147 209 10
0 13 -22 13 -95z m237 73 c27 -25 30 -64 8 -95 -14 -20 -14 -23 4 -32 28 -15
36 -63 17 -100 -20 -38 -44 -51 -94 -51 -33 0 -45 6 -66 31 -31 36 -33 49 -8
49 11 0 24 -11 30 -25 9 -20 19 -25 47 -25 73 0 88 94 17 115 -40 11 -42 31
-3 38 31 7 43 31 30 65 -13 33 -75 31 -91 -3 -13 -29 -26 -32 -35 -9 -3 8 4
25 17 40 31 32 94 33 127 2z m231 3 c26 -22 29 -76 6 -102 -14 -16 -14 -18 5
-28 28 -16 38 -74 17 -106 -34 -51 -110 -64 -152 -24 -31 29 -38 59 -13 59 10
0 19 -4 19 -9 0 -37 70 -53 102 -24 38 35 9 103 -44 103 -30 0 -20 27 11 33
56 12 48 87 -9 87 -20 0 -35 -8 -46 -25 -19 -29 -32 -32 -41 -9 -3 8 4 25 17
40 30 30 96 33 128 5z m230 2 c31 -26 37 -65 14 -92 -18 -23 -18 -24 5 -47 55
-55 12 -144 -71 -144 -49 0 -96 30 -96 61 0 27 18 24 50 -11 25 -27 31 -29 56
-19 34 12 44 25 44 61 0 29 -31 58 -62 58 -30 0 -20 27 12 33 34 7 51 47 29
73 -19 23 -72 14 -84 -14 -10 -23 -35 -26 -42 -5 -3 7 7 24 21 38 31 30 93 34
124 8z m-22678 -66 c38 -19 47 -51 53 -179 5 -111 4 -118 -15 -124 -14 -4 -27
1 -41 14 l-20 21 -40 -21 c-83 -42 -177 -2 -177 76 0 48 33 73 120 92 88 19
96 25 81 53 -19 34 -81 29 -114 -9 -31 -35 -52 -38 -67 -11 -14 28 5 65 43 84
39 19 143 21 177 4z m523 -1 c18 -7 40 -23 51 -34 24 -27 34 -111 15 -123 -8
-5 -56 -9 -106 -9 -102 0 -110 -6 -72 -54 27 -34 71 -34 116 0 37 28 66 28 71
1 8 -40 -66 -87 -135 -87 -56 1 -119 33 -139 72 -25 46 -24 134 1 177 37 63
125 88 198 57z m377 0 c31 -38 -9 -89 -54 -68 -45 20 -30 82 20 82 12 0 27 -7
34 -14z m18775 -20 c45 -45 45 -127 0 -172 -34 -34 -100 -33 -138 1 -25 24
-29 35 -29 85 0 50 4 61 29 85 38 35 104 35 138 1z m595 4 c0 -14 -7 -20 -24
-20 -22 0 -26 8 -17 38 1 1 10 2 21 2 13 0 20 -7 20 -20z m-240 -180 c0 -13
-7 -20 -20 -20 -13 0 -20 7 -20 20 0 13 7 20 20 20 13 0 20 -7 20 -20z m240
-1 c0 -15 -5 -20 -22 -17 -31 4 -33 38 -2 38 18 0 24 -5 24 -21z m-19372 -31
c30 -30 3 -83 -39 -76 -32 5 -45 31 -31 62 13 28 49 35 70 14z m228 -2734 c19
-9 41 -26 49 -38 31 -43 9 -105 -32 -92 -10 3 -28 22 -41 42 -21 33 -26 35
-69 32 -33 -2 -49 -9 -60 -24 -20 -31 1 -49 100 -79 45 -14 87 -28 93 -33 40
-28 56 -104 33 -154 -38 -85 -221 -104 -292 -30 -34 35 -45 83 -23 104 23 23
56 10 72 -28 16 -39 40 -54 86 -54 66 0 102 56 61 92 -10 9 -47 23 -83 32
-108 28 -147 66 -137 137 6 48 38 86 81 98 50 15 126 12 162 -5z m222 -121 c9
-16 11 -16 27 0 38 39 140 3 116 -41 -7 -12 -23 -17 -57 -17 -63 0 -74 -20
-74 -136 0 -94 -10 -113 -52 -107 -23 3 -23 5 -26 148 -1 79 0 150 2 157 8 19
53 16 64 -4z m5202 -217 c6 -8 10 -25 8 -38 -2 -19 -9 -23 -38 -23 -29 0 -36
4 -38 23 -4 28 14 52 38 52 10 0 23 -7 30 -14z m859 0 c8 -9 11 -74 9 -211 -3
-176 -5 -199 -20 -209 -13 -8 -23 -8 -35 0 -16 10 -18 33 -21 209 -3 204 1
225 38 225 10 0 23 -6 29 -14z m5661 -6 c72 -37 105 -112 98 -221 -3 -43 -13
-80 -26 -103 l-21 -35 35 -20 c24 -15 34 -27 34 -46 0 -33 -29 -33 -86 0 -35
20 -47 23 -69 15 -64 -24 -162 -4 -214 43 -74 68 -83 227 -18 321 44 63 185
88 267 46z m2661 -18 c24 -27 29 -41 29 -83 0 -43 -5 -55 -29 -80 -16 -16 -37
-29 -45 -29 -9 0 -16 -4 -16 -10 0 -5 4 -10 9 -10 13 0 79 -101 87 -133 15
-64 -51 -79 -87 -19 -73 124 -99 152 -141 152 l-28 0 0 -77 c0 -57 -4 -81 -17
-95 -19 -21 -44 -23 -61 -6 -17 17 -17 399 1 417 9 9 46 11 140 9 l129 -3 29
-33z m517 26 c7 -7 12 -33 12 -59 0 -45 2 -48 28 -51 21 -2 27 -8 27 -28 0
-20 -6 -26 -28 -28 l-28 -3 3 -92 3 -92 38 -3 c45 -4 57 -24 32 -52 -29 -32
-122 -23 -147 14 -4 6 -8 59 -8 119 0 84 -3 107 -14 107 -20 0 -37 25 -30 44
3 9 15 16 25 16 16 0 19 8 19 48 0 50 12 72 40 72 9 0 21 -5 28 -12z m2405 0
c9 -7 30 -49 46 -93 17 -44 48 -125 71 -179 44 -109 47 -128 26 -146 -31 -25
-59 -8 -81 48 l-20 53 -84 -3 -83 -3 -17 -44 c-19 -52 -43 -71 -68 -55 -10 6
-19 20 -21 31 -4 23 124 360 146 386 18 20 61 22 85 5z m-17105 -10 c28 -28 7
-78 -33 -78 -27 0 -45 18 -45 45 0 27 18 45 45 45 12 0 26 -5 33 -12z m4013
-4 c58 -29 77 -125 36 -185 -26 -39 -75 -57 -154 -58 l-53 -1 0 -59 c0 -78
-13 -111 -43 -111 -44 0 -47 12 -47 220 0 108 3 200 7 203 3 4 55 7 115 7 79
0 117 -4 139 -16z m799 -3 c5 -11 10 -35 10 -54 0 -30 4 -35 31 -41 25 -5 30
-10 27 -28 -2 -17 -11 -24 -30 -26 l-28 -3 0 -94 0 -94 37 -3 c43 -3 58 -33
27 -55 -23 -17 -95 -17 -118 0 -23 17 -35 75 -36 168 0 68 -2 77 -20 82 -12 3
-20 14 -20 25 0 12 9 23 20 27 14 4 20 15 20 35 0 50 17 80 44 80 15 0 30 -8
36 -19z m6968 -38 c3 -48 5 -53 26 -53 13 0 29 -7 36 -15 17 -20 -3 -45 -36
-45 -23 0 -24 -2 -24 -82 0 -46 4 -88 8 -95 4 -6 23 -13 42 -15 40 -4 53 -33
24 -55 -27 -20 -98 -16 -125 6 -22 18 -24 28 -27 129 -3 99 -6 111 -23 115
-26 7 -25 47 1 54 16 4 20 14 20 47 0 49 15 68 50 64 23 -3 25 -8 28 -55z
m7196 51 c12 -4 16 -20 16 -55 0 -45 2 -49 25 -49 25 0 46 -26 38 -47 -3 -7
-18 -13 -34 -13 l-29 0 0 -72 c0 -105 5 -116 49 -120 28 -2 37 -8 39 -24 6
-42 -96 -60 -139 -25 -22 18 -24 28 -27 129 -3 99 -6 111 -23 115 -26 7 -25
47 1 54 16 4 20 14 20 47 0 57 21 76 64 60z m-14643 -115 c37 -14 49 -48 49
-137 0 -42 4 -94 9 -114 13 -56 -26 -80 -64 -38 -17 19 -18 19 -56 0 -94 -48
-189 3 -172 93 8 39 33 56 117 76 42 10 79 21 82 24 3 3 3 14 0 25 -13 40 -91
35 -118 -8 -8 -12 -23 -20 -40 -20 -24 0 -28 4 -28 28 0 73 118 110 221 71z
m183 15 c9 -3 16 -12 16 -20 0 -19 16 -18 24 1 7 20 89 20 106 0 7 -8 10 -25
6 -40 -6 -23 -11 -25 -53 -22 -41 2 -48 -1 -60 -23 -7 -15 -13 -60 -13 -110 0
-53 -5 -91 -12 -98 -17 -17 -55 -15 -62 4 -3 9 -6 78 -6 154 0 122 2 140 18
149 21 13 17 12 36 5z m754 -5 c67 -14 97 -47 93 -101 -2 -30 -49 -22 -78 12
-61 73 -150 -2 -123 -102 13 -45 32 -61 73 -60 24 1 40 10 63 38 27 32 33 35
52 25 49 -26 9 -99 -66 -122 -102 -30 -193 21 -207 118 -13 94 32 175 107 193
18 4 34 8 35 9 1 1 24 -4 51 -10z m423 1 c17 -10 19 -23 19 -150 0 -76 -3
-145 -6 -154 -9 -24 -55 -20 -61 4 -6 24 -11 25 -34 4 -26 -24 -90 -29 -127
-10 -22 11 -34 27 -41 54 -12 40 -15 210 -5 236 7 19 63 22 69 4 2 -7 6 -57 9
-112 3 -54 11 -104 17 -112 17 -20 52 -17 77 6 20 19 22 31 22 115 0 72 4 97
16 109 18 19 20 19 45 6z m488 -19 c32 -23 38 -45 42 -182 4 -111 3 -114 -18
-117 -12 -2 -30 6 -41 18 l-20 21 -33 -20 c-52 -32 -113 -28 -150 8 -36 36
-38 79 -6 116 16 19 44 31 101 46 44 10 81 21 84 23 8 8 -19 45 -37 51 -26 8
-70 -11 -92 -39 -33 -42 -79 -13 -59 38 23 60 165 83 229 37z m180 10 c17 -17
21 -18 32 -5 13 16 72 19 100 4 22 -12 25 -42 6 -58 -7 -6 -29 -9 -48 -6 -56
8 -62 -3 -69 -118 -3 -57 -9 -109 -13 -115 -5 -7 -19 -13 -33 -13 -37 0 -46
37 -42 183 2 100 6 130 18 137 21 14 28 12 49 -9z m5570 10 c7 -5 30 -57 51
-116 l37 -108 34 98 c39 116 59 145 86 129 10 -6 19 -18 21 -27 3 -16 -104
-311 -133 -368 -30 -58 -160 -65 -160 -9 0 22 6 26 40 30 29 4 43 12 54 31 14
25 12 35 -37 161 -29 74 -52 142 -52 151 0 9 8 21 18 26 21 13 24 13 41 2z
m2593 -18 c19 -19 23 -38 29 -137 4 -63 10 -119 14 -126 9 -14 -13 -40 -35
-40 -9 0 -25 9 -34 19 -17 19 -18 19 -59 0 -88 -39 -161 -13 -174 63 -8 56 29
88 130 112 79 18 91 30 61 60 -26 26 -70 20 -101 -14 -34 -39 -67 -37 -71 3
-7 57 50 89 151 84 53 -2 72 -7 89 -24z m518 9 c40 -19 70 -71 70 -120 0 -42
-25 -52 -131 -52 -70 0 -79 -2 -79 -18 0 -28 38 -62 68 -62 16 0 43 11 62 25
49 36 72 34 68 -7 -2 -26 -11 -37 -43 -55 -73 -41 -172 -23 -219 40 -30 41
-30 163 0 204 27 37 80 63 129 63 22 0 56 -8 75 -18z m2337 -1 c15 -18 19 -18
37 -5 27 19 101 18 131 -2 23 -15 27 -15 50 0 34 22 107 21 136 -3 23 -18 24
-27 27 -148 4 -142 -3 -161 -52 -149 -29 7 -36 37 -36 150 0 104 -23 133 -70
86 -17 -17 -20 -33 -20 -118 0 -104 -7 -122 -47 -122 -34 0 -43 29 -43 137 0
101 -7 123 -40 123 -35 0 -48 -32 -52 -132 -5 -99 -16 -128 -47 -128 -36 0
-41 20 -41 167 0 125 2 143 18 152 24 15 30 14 49 -8z m686 -10 c43 -25 71
-92 64 -157 -10 -97 -74 -151 -169 -142 -85 9 -137 67 -139 154 -2 92 39 149
119 164 46 9 89 2 125 -19z m191 13 c12 -12 16 -38 16 -112 1 -106 11 -132 52
-132 46 0 60 30 65 137 4 71 9 101 20 110 16 12 43 7 55 -11 13 -19 9 -281 -4
-294 -18 -18 -46 -15 -59 6 -11 18 -13 18 -48 0 -49 -26 -108 -18 -138 17 -21
24 -23 36 -23 150 0 108 2 125 18 134 23 14 28 14 46 -5z m360 -11 c5 -13 9
-13 33 2 30 20 99 23 131 6 34 -18 43 -60 40 -180 -3 -96 -6 -116 -20 -125
-13 -8 -23 -8 -35 0 -15 9 -18 28 -21 110 -2 106 -14 144 -44 144 -56 0 -78
-45 -78 -156 0 -87 -5 -104 -34 -104 -42 0 -46 16 -46 167 0 140 1 144 23 152
26 10 43 5 51 -16z m-13609 -137 c0 -131 -2 -150 -17 -160 -13 -8 -23 -8 -35
0 -16 10 -18 31 -21 150 -1 76 0 144 3 152 3 8 17 12 37 10 l33 -3 0 -149z
m1733 138 c46 -32 51 -84 7 -84 -12 0 -34 11 -49 25 -28 26 -60 32 -85 16 -26
-17 -3 -39 63 -61 109 -36 137 -74 105 -144 -25 -54 -127 -72 -206 -36 -46 20
-65 58 -43 85 18 22 33 19 65 -15 31 -33 83 -41 104 -16 20 24 1 43 -61 61
-81 22 -123 62 -114 108 10 55 46 77 124 77 45 0 75 -5 90 -16z m-7417 -216
c9 -7 53 -70 100 -140 l84 -127 5 129 c3 79 10 134 17 141 17 17 60 3 67 -23
10 -38 7 -355 -4 -382 -7 -20 -17 -26 -38 -26 -36 0 -58 25 -153 169 l-74 115
-3 -137 c-3 -136 -3 -137 -27 -143 -52 -13 -55 1 -55 217 0 178 2 199 18 208
23 14 45 13 63 -1z m12935 -25 c9 -35 -7 -58 -41 -58 -37 0 -53 25 -37 59 17
38 69 37 78 -1z m-12348 -103 c66 -41 92 -134 58 -214 -37 -90 -172 -114 -250
-46 -75 67 -66 210 17 260 44 27 131 27 175 0z m190 -222 c28 -28 7 -78 -33
-78 -27 0 -45 18 -45 45 0 27 18 45 45 45 12 0 26 -5 33 -12z m17636 -20988
c52 -89 53 -74 -12 -187 -20 -35 -39 -63 -42 -63 -3 0 -27 38 -53 85 l-49 84
47 81 c27 44 51 80 56 80 4 0 28 -36 53 -80z m193 -335 c50 -87 171 -298 248
-430 118 -203 330 -572 358 -623 l29 -52 -313 2 -313 3 -74 128 -73 128 44 82
c24 44 48 82 54 84 6 2 43 -55 84 -126 l74 -131 108 0 c59 0 107 3 107 6 0 3
-32 60 -71 127 -39 67 -88 151 -109 187 -119 204 -263 457 -277 485 -15 32
-15 34 33 118 27 47 50 84 50 83 1 0 19 -32 41 -71z m-392 -47 c32 -57 101
-175 152 -264 51 -88 93 -166 93 -174 0 -7 -21 -51 -47 -96 -40 -73 -48 -81
-58 -66 -6 9 -54 90 -105 180 -75 132 -95 161 -106 150 -6 -7 -33 -47 -58 -87
l-46 -75 29 -50 c16 -28 86 -150 156 -271 70 -121 139 -239 152 -262 l25 -43
-461 0 -462 0 12 23 c7 12 39 69 72 127 33 58 82 144 109 193 28 48 51 87 53
87 6 0 95 -157 95 -169 0 -6 -9 -30 -20 -51 l-20 -40 160 0 c150 0 160 1 151
18 -5 9 -42 73 -82 142 -39 69 -94 164 -121 212 l-49 88 152 265 c84 146 156
265 159 265 3 0 32 -46 65 -102z m143 -1285 l2 -163 -30 0 -30 0 0 158 c0 87
3 162 7 166 4 4 16 6 28 4 19 -3 20 -11 23 -165z m-711 123 c24 -21 26 -26 14
-40 -13 -15 -15 -15 -28 4 -11 15 -24 20 -46 18 -27 -2 -32 -7 -32 -28 0 -18
10 -30 36 -45 77 -43 89 -57 89 -103 0 -52 -30 -87 -83 -97 -42 -8 -110 20
-115 46 -5 26 26 31 48 9 24 -24 56 -26 68 -4 16 28 3 48 -49 77 -55 31 -69
51 -69 97 0 77 105 119 167 66z m576 -4 c17 -18 18 -23 7 -37 -11 -14 -14 -13
-27 5 -11 15 -24 20 -46 18 -46 -4 -45 -44 3 -75 77 -49 90 -63 90 -99 0 -23
-9 -44 -29 -66 -25 -28 -35 -32 -79 -32 -40 0 -57 5 -77 24 -29 28 -31 36 -8
44 10 4 25 -2 39 -15 31 -29 74 -20 74 16 0 19 -13 33 -54 59 -64 41 -68 46
-68 94 0 28 7 43 32 65 29 26 39 29 78 24 26 -3 53 -13 65 -25z m-383 -97 c0
-135 -11 -169 -61 -179 -58 -11 -79 -8 -79 14 0 13 7 20 18 20 36 0 42 20 42
142 l0 118 40 0 40 0 0 -115z m913 13 c10 -7 28 -31 42 -53 25 -41 30 -36 26
22 -2 21 15 40 27 29 11 -11 8 -178 -4 -194 -10 -13 -13 -13 -29 4 -10 10 -33
44 -51 74 l-34 55 0 -67 c0 -54 -3 -68 -15 -68 -12 0 -15 17 -15 93 0 109 13
134 53 105z m-293 -5 c0 -5 -7 -17 -15 -27 -21 -28 -19 -45 16 -109 l31 -57
-36 0 c-33 0 -38 4 -61 50 l-25 50 27 50 c17 30 35 50 46 50 9 0 17 -3 17 -7z
m118 -40 l21 -48 15 37 c9 21 16 42 16 48 0 5 9 10 20 10 21 0 27 18 -68 -204
-16 -38 -37 -73 -47 -79 -20 -11 -20 -4 10 73 l18 46 -37 78 c-20 43 -36 80
-36 82 0 2 15 4 34 4 30 0 35 -4 54 -47z m470 35 c-3 -7 -19 -14 -36 -16 -28
-3 -32 -7 -32 -33 0 -26 3 -29 30 -29 17 0 30 -4 30 -10 0 -5 -13 -10 -30 -10
-27 0 -30 -3 -30 -30 0 -28 3 -30 35 -30 24 0 35 -5 35 -15 0 -11 -12 -15 -52
-15 -75 0 -82 7 -86 88 -6 99 4 112 79 112 44 0 60 -3 57 -12z m202 -3 c0 -9
-9 -15 -25 -15 -25 0 -25 -1 -25 -85 l0 -85 -35 0 -35 0 0 85 c0 84 0 85 -25
85 -16 0 -25 6 -25 15 0 12 16 15 85 15 69 0 85 -3 85 -15z m3298 -872 l2
-453 -4241 0 -4242 0 -66 54 c-36 30 -75 63 -86 73 -17 16 -328 275 -373 311
-20 15 -21 15 192 192 83 69 191 160 240 202 l91 77 4240 -2 4240 -2 3 -452z"/>
<path d="M1156 31179 c-22 -18 -26 -28 -26 -75 0 -45 4 -59 25 -79 13 -14 34
-25 45 -25 12 0 32 11 45 25 21 20 25 34 25 79 0 47 -4 57 -26 75 -15 12 -34
21 -44 21 -10 0 -29 -9 -44 -21z"/>
<path d="M17173 29529 c-12 -4 -23 -16 -26 -26 -22 -77 -17 -172 10 -198 21
-22 60 -18 77 7 19 26 22 158 6 188 -15 27 -41 39 -67 29z"/>
<path d="M17617 29523 c-4 -3 -7 -55 -7 -115 l0 -108 63 0 c83 0 100 16 105
105 4 61 3 66 -26 95 -26 25 -38 30 -80 30 -27 0 -52 -3 -55 -7z"/>
<path d="M21646 29463 c-10 -32 -21 -64 -23 -70 -4 -9 8 -13 39 -13 25 0 47 3
51 6 5 6 -30 111 -43 127 -3 4 -14 -19 -24 -50z"/>
<path d="M23040 29485 l0 -46 63 3 c60 3 62 4 65 33 5 39 -19 55 -80 55 l-48
0 0 -45z"/>
<path d="M23040 29350 l0 -50 59 0 c83 0 110 28 75 78 -13 19 -24 22 -75 22
l-59 0 0 -50z"/>
<path d="M15576 29434 c-50 -50 -21 -144 44 -144 36 0 60 32 60 80 0 48 -24
80 -60 80 -16 0 -36 -7 -44 -16z"/>
<path d="M15833 29450 c-33 -13 -48 -79 -29 -125 12 -29 20 -35 44 -35 41 0
62 28 62 81 0 32 -6 52 -20 67 -23 24 -25 25 -57 12z"/>
<path d="M16457 29435 c-32 -32 -28 -115 6 -137 22 -14 64 -8 80 10 24 26 23
104 -1 125 -23 21 -66 22 -85 2z"/>
<path d="M18180 29357 c-35 -9 -46 -17 -48 -34 -6 -45 85 -51 102 -8 8 23 8
55 -1 54 -5 0 -28 -6 -53 -12z"/>
<path d="M18727 29360 c-45 -8 -70 -30 -62 -52 15 -39 89 -26 105 17 12 31 13
45 3 44 -5 -1 -25 -5 -46 -9z"/>
<path d="M19336 29434 c-32 -32 -20 -44 44 -44 62 0 68 8 37 48 -13 17 -62 15
-81 -4z"/>
<path d="M20200 29357 c-51 -14 -67 -47 -31 -66 35 -19 91 15 91 56 0 26 1 26
-60 10z"/>
<path d="M20924 29425 c-12 -18 -15 -38 -11 -66 7 -52 22 -69 62 -69 40 0 55
17 62 69 8 57 -16 91 -62 91 -26 0 -39 -6 -51 -25z"/>
<path d="M21883 29438 c-22 -24 -25 -107 -4 -131 20 -25 67 -21 85 5 50 71
-25 187 -81 126z"/>
<path d="M22380 29452 c-23 -7 -50 -34 -50 -49 0 -9 16 -13 60 -13 59 0 71 8
52 36 -11 17 -46 32 -62 26z"/>
<path d="M23361 29359 c-64 -12 -84 -51 -35 -69 35 -14 76 7 85 42 9 34 5 37
-50 27z"/>
<path d="M23854 29436 c-14 -11 -19 -26 -19 -64 0 -60 17 -82 61 -82 40 0 64
29 64 80 0 69 -55 103 -106 66z"/>
<path d="M22821 28960 l-42 -60 45 0 46 0 0 60 c0 33 -2 60 -4 60 -2 0 -22
-27 -45 -60z"/>
<path d="M23042 29043 c-27 -52 -24 -179 5 -208 21 -22 60 -18 77 7 11 16 16
46 16 98 0 89 -15 120 -60 120 -18 0 -33 -7 -38 -17z"/>
<path d="M23739 29043 c-19 -22 -24 -160 -7 -193 11 -19 21 -25 48 -25 27 0
37 6 47 25 18 36 17 160 -3 188 -18 26 -65 30 -85 5z"/>
<path d="M18303 28888 c-70 -15 -79 -71 -12 -71 21 0 38 7 51 22 18 23 25 62
11 60 -5 -1 -27 -5 -50 -11z"/>
<path d="M18629 28963 c-35 -41 -5 -143 43 -143 52 0 81 106 40 143 -24 22
-66 22 -83 0z"/>
<path d="M18900 28887 c-52 -14 -67 -47 -30 -67 38 -20 90 12 90 56 0 27 2 27
-60 11z"/>
<path d="M19097 28962 c-19 -21 -22 -83 -6 -113 26 -49 91 -39 109 17 13 40
-1 99 -26 108 -29 11 -61 6 -77 -12z"/>
<path d="M19836 28958 c-9 -12 -16 -38 -16 -58 0 -51 24 -80 64 -80 44 0 61
22 61 80 0 26 -6 54 -14 63 -20 25 -76 22 -95 -5z"/>
<path d="M21089 28963 c-8 -9 -14 -37 -14 -63 0 -58 17 -80 61 -80 40 0 64 29
64 80 0 51 -24 80 -64 80 -19 0 -40 -7 -47 -17z"/>
<path d="M21360 28887 c-51 -14 -67 -47 -31 -66 35 -19 91 15 91 56 0 26 1 26
-60 10z"/>
<path d="M22132 28979 c-28 -11 -45 -54 -38 -97 7 -46 23 -62 62 -62 40 0 64
29 64 80 0 61 -39 97 -88 79z"/>
<path d="M22380 28887 c-35 -9 -46 -17 -48 -34 -5 -35 43 -50 77 -25 15 10 27
31 29 45 4 30 4 30 -58 14z"/>
<path d="M830 28460 l0 -140 53 0 c87 0 127 47 127 148 0 89 -42 128 -142 131
l-38 1 0 -140z"/>
<path d="M21189 28503 c-8 -9 -14 -37 -14 -63 0 -56 17 -80 56 -80 35 0 59 32
59 80 0 48 -24 80 -59 80 -16 0 -35 -7 -42 -17z"/>
<path d="M21887 28593 c-11 -11 -8 -58 5 -71 7 -7 21 -12 33 -12 12 0 26 5 33
12 7 7 12 21 12 33 0 12 -5 26 -12 33 -13 13 -60 16 -71 5z"/>
<path d="M21887 28468 c-26 -21 -31 -61 -10 -86 44 -51 119 -16 106 49 -8 40
-63 61 -96 37z"/>
<path d="M22347 28582 c-21 -23 -22 -76 -1 -96 19 -19 67 -21 82 -3 21 25 25
66 8 92 -20 30 -65 34 -89 7z"/>
<path d="M22579 28583 c-19 -22 -24 -160 -7 -193 17 -31 68 -39 89 -14 19 23
20 184 0 207 -17 22 -65 22 -82 0z"/>
<path d="M22813 28478 c-41 -53 -3 -130 57 -119 36 6 52 69 30 112 -12 22 -72
27 -87 7z"/>
<path d="M23056 28505 c-20 -30 -36 -57 -36 -60 0 -4 19 -5 42 -3 l42 3 3 58
c2 31 -1 57 -5 57 -5 0 -26 -25 -46 -55z"/>
<path d="M23291 28511 c-22 -33 -41 -62 -41 -65 0 -3 20 -6 45 -6 l45 0 0 65
c0 36 -2 65 -4 65 -2 0 -22 -27 -45 -59z"/>
<path d="M1287 28378 c-47 -13 -68 -45 -41 -65 43 -31 114 5 114 58 0 21 -14
22 -73 7z"/>
<path d="M1800 28480 c-38 -38 -27 -50 45 -50 51 0 65 3 65 15 0 23 -37 55
-65 55 -14 0 -34 -9 -45 -20z"/>
<path d="M20945 28490 c-8 -16 -15 -38 -15 -50 0 -12 7 -34 15 -50 13 -24 22
-30 50 -30 41 0 65 29 65 80 0 51 -24 80 -65 80 -28 0 -37 -6 -50 -30z"/>
<path d="M14299 25175 c-36 -19 -59 -72 -59 -135 0 -82 35 -133 103 -145 43
-8 51 9 12 27 -35 16 -33 48 3 48 15 0 36 -7 46 -15 30 -22 43 -18 55 16 25
73 6 162 -43 201 -25 21 -81 22 -117 3z"/>
<path d="M16900 25135 l0 -55 63 0 c70 1 97 15 97 52 0 41 -29 58 -98 58 l-62
0 0 -55z"/>
<path d="M19975 25087 c-15 -43 -25 -80 -23 -83 3 -3 28 -4 55 -2 l50 3 -27
80 -26 79 -29 -77z"/>
<path d="M6793 25184 c-8 -4 -13 -27 -13 -65 l0 -59 41 0 c119 0 140 109 24
124 -22 3 -46 3 -52 0z"/>
<path d="M7185 24963 c-41 -9 -65 -27 -65 -49 0 -38 62 -47 98 -14 12 12 22
32 22 45 0 25 -9 28 -55 18z"/>
<path d="M8998 24958 c-41 -11 -53 -30 -38 -59 7 -13 21 -19 44 -19 37 0 61
21 71 63 6 24 4 27 -16 26 -13 -1 -41 -5 -61 -11z"/>
<path d="M17345 24962 c-52 -18 -67 -40 -45 -67 32 -39 110 3 110 58 0 31 1
31 -65 9z"/>
<path d="M17860 25068 c-11 -12 -20 -30 -20 -40 0 -15 9 -18 59 -18 66 0 78 8
60 42 -23 44 -66 51 -99 16z"/>
<path d="M20861 25054 c-33 -41 -29 -108 8 -145 35 -34 50 -36 84 -9 30 24 42
79 27 126 -20 59 -83 74 -119 28z"/>
<path d="M2715 24714 c-29 -31 -33 -89 -10 -133 25 -50 64 -54 106 -12 57 57
24 170 -49 171 -13 0 -34 -12 -47 -26z"/>
<path d="M16730 1225 c0 -23 3 -25 51 -25 l50 0 -3 -130 c-3 -129 -3 -130 20
-130 22 0 22 2 22 130 l0 130 50 0 c47 0 50 2 50 25 l0 25 -120 0 -120 0 0
-25z"/>
<path d="M17000 1095 c0 -148 1 -155 20 -155 18 0 20 7 20 75 0 62 4 79 20 95
23 23 50 26 68 8 7 -7 12 -44 12 -95 0 -75 2 -83 19 -83 17 0 20 9 23 77 4
105 -7 135 -55 146 -29 7 -43 5 -62 -7 l-25 -16 0 55 c0 48 -2 55 -20 55 -19
0 -20 -7 -20 -155z"/>
<path d="M17237 1244 c-4 -4 -7 -16 -7 -26 0 -13 7 -18 26 -18 21 0 25 4 22
22 -3 23 -27 35 -41 22z"/>
<path d="M17650 1226 c0 -15 7 -26 20 -29 17 -4 20 0 20 24 0 22 -5 29 -20 29
-14 0 -20 -7 -20 -24z"/>
<path d="M18131 1233 c-67 -34 -93 -168 -46 -239 23 -35 74 -64 114 -64 45 0
107 36 121 71 23 55 -17 68 -48 15 -37 -62 -124 -54 -152 14 -20 49 -8 129 24
157 40 34 88 31 119 -7 14 -16 33 -30 41 -30 23 0 19 35 -7 66 -31 35 -114 44
-166 17z"/>
<path d="M20079 1227 c-51 -34 -71 -80 -66 -150 6 -73 26 -103 84 -129 52 -23
101 -21 160 8 38 19 38 19 38 79 l0 60 -68 3 c-61 3 -67 1 -67 -17 0 -16 8
-20 43 -23 38 -3 42 -6 45 -31 3 -23 -2 -30 -33 -43 -83 -34 -155 14 -155 103
0 60 10 81 47 104 50 31 133 12 133 -30 0 -14 37 -14 45 -1 11 17 -27 69 -58
80 -51 17 -111 12 -148 -13z"/>
<path d="M21897 1244 c-4 -4 -7 -26 -7 -50 l0 -42 -29 11 c-61 23 -121 -37
-121 -121 0 -33 32 -87 61 -102 25 -14 85 -5 92 13 4 9 6 9 6 0 1 -7 10 -13
21 -13 20 0 20 5 18 152 -3 129 -5 153 -18 156 -9 1 -19 0 -23 -4z m-17 -141
c17 -21 21 -37 17 -65 -13 -98 -107 -88 -107 10 0 78 49 107 90 55z"/>
<path d="M22163 1230 c-42 -25 -66 -73 -66 -135 -1 -78 23 -122 80 -147 40
-18 55 -19 94 -11 36 7 51 6 65 -4 24 -17 54 -17 54 2 0 8 -9 19 -20 25 -19
10 -20 12 -3 43 23 43 23 146 -1 182 -41 63 -138 85 -203 45z m127 -37 c48
-28 63 -92 39 -162 -12 -35 -16 -36 -43 -16 -11 8 -23 15 -27 15 -14 0 -19
-34 -7 -41 22 -14 -1 -22 -34 -13 -86 25 -106 170 -30 217 35 21 67 21 102 0z"/>
<path d="M23360 1225 c0 -18 5 -25 20 -25 15 0 20 7 20 25 0 18 -5 25 -20 25
-15 0 -20 -7 -20 -25z"/>
<path d="M19438 1229 c-11 -6 -18 -22 -18 -39 0 -20 -5 -30 -15 -30 -8 0 -15
-7 -15 -15 0 -8 7 -15 15 -15 12 0 15 -17 15 -89 0 -95 2 -100 51 -108 26 -4
29 -1 29 21 0 19 -5 26 -20 26 -18 0 -20 7 -20 75 0 68 2 75 20 75 11 0 20 7
20 15 0 8 -9 15 -19 15 -16 0 -20 8 -23 39 -3 35 -5 38 -20 30z"/>
<path d="M21427 1229 c-10 -6 -17 -22 -17 -39 0 -17 -4 -30 -10 -30 -5 0 -10
-7 -10 -15 0 -8 5 -15 10 -15 6 0 10 -33 10 -80 0 -67 3 -83 20 -100 22 -22
37 -25 59 -11 17 11 7 41 -14 41 -12 0 -15 14 -15 75 0 66 2 75 18 75 10 0 19
7 19 15 0 8 -9 15 -19 15 -14 0 -18 8 -18 34 0 40 -8 48 -33 35z"/>
<path d="M22918 1229 c-11 -6 -18 -22 -18 -39 0 -20 -5 -30 -15 -30 -8 0 -15
-7 -15 -15 0 -8 7 -15 15 -15 12 0 15 -17 15 -90 0 -88 1 -91 26 -100 41 -16
54 -12 54 15 0 18 -5 25 -20 25 -18 0 -20 7 -20 75 0 68 2 75 20 75 11 0 20 7
20 15 0 8 -9 15 -19 15 -16 0 -20 8 -23 39 -3 35 -5 38 -20 30z"/>
<path d="M23268 1232 c-13 -3 -18 -13 -18 -38 0 -24 -5 -34 -15 -34 -8 0 -15
-7 -15 -15 0 -8 7 -15 15 -15 12 0 15 -17 15 -90 0 -80 2 -90 20 -100 26 -14
60 -4 60 17 0 8 -9 17 -20 20 -18 5 -20 14 -20 79 0 67 2 74 20 74 11 0 20 7
20 15 0 8 -9 15 -19 15 -16 0 -21 8 -23 38 -2 29 -7 37 -20 34z"/>
<path d="M17365 1163 c-27 -7 -45 -32 -45 -64 0 -32 11 -42 75 -66 37 -14 50
-24 50 -38 0 -30 -58 -33 -82 -6 -20 24 -53 28 -53 6 0 -65 148 -85 180 -24
27 50 5 80 -75 104 -54 15 -71 37 -39 49 27 10 44 7 60 -13 17 -20 54 -17 54
4 0 33 -73 62 -125 48z"/>
<path d="M17773 1160 c-29 -12 -42 -39 -36 -71 5 -28 23 -40 85 -59 44 -13 54
-25 38 -45 -18 -21 -58 -18 -72 5 -14 22 -58 28 -58 7 0 -42 68 -78 122 -63
38 10 49 21 58 59 10 44 -4 59 -75 80 -37 10 -50 19 -50 33 0 25 46 31 68 10
33 -33 69 -12 39 23 -19 24 -86 35 -119 21z"/>
<path d="M18410 1152 c-60 -30 -75 -127 -28 -187 36 -46 128 -42 163 9 18 24
20 118 4 148 -10 19 -65 48 -91 48 -7 0 -29 -8 -48 -18z m90 -42 c43 -43 15
-140 -40 -140 -55 0 -82 93 -40 138 26 27 54 28 80 2z"/>
<path d="M18670 1161 c-8 -6 -27 -7 -42 -4 l-28 6 0 -112 c0 -104 1 -111 20
-111 18 0 20 7 20 73 0 78 16 117 49 117 33 0 41 -22 41 -107 0 -79 1 -83 23
-83 20 0 22 4 18 51 -5 76 6 118 34 131 43 19 55 -2 55 -98 0 -77 2 -84 20
-84 19 0 20 7 20 99 0 92 -2 101 -22 115 -28 20 -57 20 -85 1 -19 -13 -24 -13
-50 0 -32 17 -52 19 -73 6z"/>
<path d="M19027 1164 c-4 -4 -23 -7 -42 -6 l-35 1 0 -154 c0 -148 1 -155 20
-155 17 0 20 7 20 50 0 47 1 50 19 40 43 -23 94 -3 120 47 20 39 14 119 -11
147 -23 26 -77 44 -91 30z m53 -49 c6 -8 14 -31 17 -52 4 -29 0 -44 -17 -65
-25 -32 -46 -35 -72 -11 -23 20 -24 90 -2 121 17 25 56 29 74 7z"/>
<path d="M19572 1155 c-38 -16 -52 -48 -52 -113 0 -55 17 -84 59 -102 55 -22
141 12 141 57 0 20 -35 16 -55 -7 -25 -28 -60 -25 -84 6 -12 15 -21 31 -21 35
0 5 36 9 80 9 l80 0 0 31 c0 43 -16 69 -55 85 -42 17 -51 17 -93 -1z m88 -47
c11 -12 20 -25 20 -30 0 -4 -27 -8 -60 -8 -64 0 -72 8 -40 40 26 26 54 25 80
-2z"/>
<path d="M19822 1161 c-7 -4 -24 -6 -38 -3 l-24 4 0 -111 c0 -104 1 -111 20
-111 18 0 20 7 20 64 0 89 12 116 50 116 23 0 30 5 30 19 0 26 -32 39 -58 22z"/>
<path d="M20385 1156 c-37 -16 -55 -52 -55 -112 0 -57 22 -91 70 -105 61 -18
130 14 130 60 0 18 -36 12 -55 -9 -25 -28 -60 -25 -84 6 -12 15 -21 30 -21 35
0 4 37 9 83 11 l82 3 -4 30 c-5 43 -17 63 -51 80 -35 18 -55 18 -95 1z m89
-48 c24 -34 20 -38 -39 -38 -59 0 -70 13 -39 44 22 23 60 20 78 -6z"/>
<path d="M20638 1156 c-16 -8 -28 -11 -28 -5 0 5 -9 9 -20 9 -19 0 -20 -7 -20
-110 0 -109 0 -110 24 -110 22 0 23 3 25 73 2 91 7 106 37 113 43 11 54 -10
54 -102 l0 -84 26 0 27 0 -5 96 c-4 63 -10 100 -19 110 -22 21 -71 26 -101 10z"/>
<path d="M20852 1155 c-69 -30 -82 -144 -22 -197 34 -31 64 -35 115 -14 29 12
55 41 55 60 0 15 -47 4 -63 -14 -22 -27 -62 -26 -81 2 -30 42 -22 48 64 48 71
0 80 2 80 19 0 41 -22 80 -55 95 -40 19 -50 19 -93 1z m80 -42 c33 -30 23 -43
-37 -43 -59 0 -67 8 -35 40 24 24 47 25 72 3z"/>
<path d="M21091 1161 c-7 -5 -22 -6 -32 -4 -18 5 -19 -2 -19 -106 0 -104 1
-111 20 -111 18 0 20 7 20 78 0 84 9 102 47 102 13 0 26 7 30 16 10 27 -35 44
-66 25z"/>
<path d="M21214 1156 c-28 -13 -44 -33 -44 -57 0 -17 37 -9 55 11 22 25 63 23
79 -3 14 -22 -5 -37 -47 -37 -77 0 -126 -71 -79 -113 28 -26 76 -31 111 -14
17 9 31 11 31 6 0 -5 10 -9 23 -9 22 0 23 3 19 73 -5 121 -9 134 -44 146 -40
14 -66 13 -104 -3z m95 -143 c-6 -15 -16 -31 -22 -35 -21 -14 -65 -9 -71 8
-12 30 17 49 81 53 20 1 22 -1 12 -26z"/>
<path d="M21584 1163 c-12 -2 -32 -15 -45 -29 -20 -21 -24 -36 -24 -86 0 -55
3 -62 33 -89 19 -17 44 -29 60 -29 38 0 94 31 103 58 7 19 5 22 -15 22 -12 0
-31 -9 -41 -20 -10 -11 -28 -20 -40 -20 -25 0 -55 29 -55 53 0 15 12 17 80 17
71 0 80 2 80 19 0 41 -22 80 -55 95 -33 16 -41 17 -81 9z m70 -52 c26 -29 11
-41 -45 -39 -54 3 -59 8 -29 38 25 25 52 25 74 1z"/>
<path d="M22703 1160 c-51 -21 -70 -127 -34 -186 33 -54 119 -56 165 -5 24 26
28 115 8 153 -21 39 -89 58 -139 38z m87 -50 c28 -28 28 -99 0 -123 -24 -20
-63 -22 -78 -4 -16 19 -25 64 -18 91 14 54 60 72 96 36z"/>
<path d="M23049 1159 c-26 -10 -53 -51 -42 -63 13 -12 39 -5 51 14 21 34 92
22 92 -16 0 -7 -13 -15 -30 -18 -16 -3 -44 -9 -60 -12 -42 -8 -60 -29 -60 -69
0 -45 35 -70 82 -60 18 4 51 6 73 6 l41 -1 -4 98 c-3 61 -9 102 -17 111 -17
17 -92 23 -126 10z m101 -138 c0 -41 -74 -67 -100 -36 -23 27 10 50 78 54 16
1 22 -5 22 -18z"/>
<path d="M23493 1155 c-17 -7 -36 -22 -42 -34 -16 -29 -14 -123 4 -147 34 -49
122 -55 162 -11 49 52 34 160 -26 191 -36 19 -56 20 -98 1z m85 -44 c27 -23
30 -95 5 -123 -39 -44 -103 -6 -103 62 0 68 53 101 98 61z"/>
<path d="M23750 1161 c-8 -6 -27 -7 -42 -4 l-28 6 0 -112 c0 -109 0 -111 23
-111 22 0 23 3 19 60 -7 96 26 148 78 120 18 -9 20 -20 20 -95 0 -82 1 -85 23
-85 20 0 24 5 25 38 1 20 -1 65 -4 100 -5 56 -8 64 -34 77 -33 17 -59 19 -80
6z"/>
<path d="M17230 1050 c0 -108 0 -110 23 -110 23 0 23 2 26 110 l2 110 -25 0
-26 0 0 -110z"/>
<path d="M17650 1051 c0 -100 2 -109 20 -114 19 -5 20 0 20 109 0 107 -1 114
-20 114 -19 0 -20 -7 -20 -109z"/>
<path d="M19180 1066 c0 -91 1 -95 27 -116 22 -17 35 -20 63 -15 19 4 47 6 63
6 l27 -1 0 110 c0 103 -1 110 -20 110 -18 0 -20 -7 -20 -78 0 -64 -4 -82 -18
-95 -49 -45 -82 -6 -82 96 0 70 -2 77 -20 77 -19 0 -20 -7 -20 -94z"/>
<path d="M22430 1065 c0 -84 2 -96 22 -115 26 -24 65 -26 96 -4 12 8 22 10 22
5 0 -6 9 -11 20 -11 19 0 20 7 20 110 0 103 -1 110 -20 110 -18 0 -20 -7 -20
-75 0 -63 -3 -77 -22 -95 -12 -11 -29 -20 -38 -20 -32 0 -40 23 -40 107 0 76
-2 83 -20 83 -19 0 -20 -7 -20 -95z"/>
<path d="M23360 1050 c0 -103 1 -110 20 -110 19 0 20 7 20 110 0 103 -1 110
-20 110 -19 0 -20 -7 -20 -110z"/>
<path d="M4560 33267 c-241 -55 -366 -293 -305 -580 19 -91 57 -158 127 -222
46 -43 72 -58 126 -74 199 -59 405 -26 516 82 94 93 134 220 123 396 -12 197
-94 319 -255 379 -81 30 -243 39 -332 19z m197 -212 c85 -36 112 -90 113 -225
0 -120 -13 -165 -59 -211 -74 -74 -195 -60 -256 31 -27 41 -30 53 -33 147 -6
154 22 220 108 257 45 20 82 20 127 1z"/>
<path d="M6024 33261 c-81 -23 -143 -61 -193 -117 -128 -145 -132 -466 -8
-628 72 -95 140 -130 282 -148 175 -22 322 22 399 121 37 46 92 168 81 179 -7
8 -208 72 -225 72 -10 0 -20 -16 -28 -43 -17 -55 -62 -103 -110 -116 -46 -13
-48 -13 -93 -1 -81 23 -111 77 -117 216 -3 78 -1 113 13 153 39 118 171 158
260 79 19 -16 38 -41 41 -54 3 -13 14 -24 23 -24 23 0 222 47 229 54 10 11
-60 137 -97 173 -93 92 -298 130 -457 84z"/>
<path d="M1890 32826 l0 -446 135 0 135 0 0 440 0 440 -112 0 c-62 0 -123 3
-135 6 l-23 6 0 -446z"/>
<path d="M2354 33261 c-2 -2 -4 -202 -4 -443 l0 -438 130 0 130 0 2 235 3 236
96 -143 c52 -79 124 -185 158 -235 l63 -93 133 0 133 0 -1 442 -2 443 -130 -2
-130 -2 -5 -230 -5 -230 -105 156 c-58 86 -128 189 -156 231 l-51 75 -127 1
c-70 1 -130 -1 -132 -3z"/>
<path d="M3285 33260 c-2 -5 173 -482 252 -685 19 -49 44 -114 55 -143 l20
-53 150 3 150 3 59 160 c33 88 89 241 125 340 36 99 79 218 96 265 17 47 35
90 40 96 4 6 6 13 3 15 -2 3 -66 4 -142 3 -134 -2 -137 -2 -145 -25 -5 -13
-38 -119 -74 -236 -35 -116 -74 -244 -87 -285 l-23 -73 -31 95 c-39 121 -105
333 -134 430 -12 41 -25 79 -29 84 -9 9 -280 15 -285 6z"/>
<path d="M5304 33261 c-2 -2 -4 -202 -4 -443 l0 -438 140 0 140 0 -2 442 -3
442 -133 0 c-74 1 -136 -1 -138 -3z"/>
<path d="M6710 32820 l0 -445 372 2 373 3 0 100 0 101 -232 -1 -233 -1 0 86 0
85 210 0 210 0 0 95 0 95 -210 0 -210 0 0 65 0 65 225 0 226 0 -3 97 -3 96
-362 1 -363 1 0 -445z"/>
<path d="M2116 3169 c-28 -22 -34 -56 -15 -91 9 -17 6 -25 -20 -52 -82 -84 20
-192 129 -138 38 19 39 19 69 0 17 -11 35 -17 41 -13 17 11 11 43 -11 59 -20
13 -21 18 -9 45 23 55 -16 87 -43 36 l-13 -26 -24 27 -25 26 28 22 c21 17 27
30 27 59 0 30 -5 39 -30 52 -40 21 -72 19 -104 -6z m81 -35 c7 -18 -6 -45 -25
-52 -18 -6 -36 37 -21 54 15 19 38 18 46 -2z m-18 -156 c21 -24 27 -36 19 -45
-13 -16 -60 -17 -76 -1 -16 16 -15 65 1 71 22 10 27 7 56 -25z"/>
<path d="M2542 3170 c-51 -23 -72 -64 -72 -141 0 -99 49 -151 141 -151 58 0
95 21 114 65 26 62 -19 81 -54 22 -18 -31 -25 -35 -64 -35 -37 0 -45 4 -60 29
-34 58 -12 162 37 175 38 10 48 6 83 -30 35 -37 63 -40 63 -7 0 44 -65 93
-122 93 -13 0 -42 -9 -66 -20z"/>
<path d="M3447 3184 c-4 -4 -7 -29 -7 -56 0 -48 -7 -57 -27 -37 -5 5 -30 9
-53 7 -58 -4 -84 -38 -83 -109 1 -70 26 -103 82 -107 23 -2 49 2 57 9 11 9 18
8 33 -5 16 -14 21 -15 32 -3 21 21 10 301 -11 305 -9 1 -19 0 -23 -4z m-23
-146 c32 -46 8 -118 -39 -118 -28 0 -55 34 -55 70 0 36 27 70 55 70 13 0 31
-10 39 -22z"/>
<path d="M3561 3180 c-20 -12 -8 -45 17 -48 18 -3 22 1 22 21 0 27 -19 40 -39
27z"/>
<path d="M3820 3175 c-16 -20 -5 -45 20 -45 14 0 20 7 20 24 0 28 -24 41 -40
21z"/>
<path d="M664 3165 c-10 -24 6 -35 52 -35 l44 0 0 -124 c0 -105 2 -125 16
-130 36 -14 44 11 44 135 l0 119 39 0 c39 0 68 20 56 40 -4 6 -54 10 -126 10
-95 0 -121 -3 -125 -15z"/>
<path d="M3676 3164 c-3 -9 -6 -27 -6 -40 0 -15 -6 -24 -15 -24 -8 0 -15 -9
-15 -20 0 -11 7 -20 15 -20 12 0 15 -15 15 -71 0 -39 4 -79 10 -89 12 -23 52
-33 84 -20 37 14 34 40 -4 40 l-30 0 0 70 c0 63 2 70 20 70 12 0 20 7 20 16 0
9 -9 18 -20 21 -13 3 -20 14 -20 28 0 36 -10 55 -30 55 -10 0 -21 -7 -24 -16z"/>
<path d="M990 3100 c-51 -7 -83 -59 -77 -123 5 -54 26 -83 71 -96 61 -16 136
14 136 54 0 22 -26 18 -61 -7 -28 -21 -32 -21 -57 -7 -15 8 -27 23 -27 34 0
16 8 19 53 20 96 3 92 2 92 40 0 62 -54 97 -130 85z m70 -59 c15 -30 14 -31
-40 -31 -34 0 -50 4 -50 13 0 38 71 52 90 18z"/>
<path d="M3563 3103 c-19 -7 -18 -219 0 -226 30 -12 40 10 42 93 3 120 -6 146
-42 133z"/>
<path d="M1177 3093 c-4 -3 -7 -52 -7 -109 0 -76 3 -103 13 -107 25 -9 34 7
41 75 9 94 12 98 58 98 35 0 39 2 36 23 -2 17 -11 23 -36 25 -18 2 -40 -2 -48
-9 -10 -8 -14 -8 -14 0 0 12 -32 15 -43 4z"/>
<path d="M1354 3087 c-3 -8 -3 -56 -2 -108 3 -83 5 -94 22 -97 27 -6 36 15 36
89 0 67 10 89 41 89 23 0 29 -20 29 -100 0 -75 16 -104 45 -80 11 9 15 33 15
84 0 74 9 96 42 96 21 0 27 -22 30 -110 3 -62 4 -65 28 -65 24 0 25 2 28 84 4
103 -10 131 -64 131 -19 0 -45 -5 -56 -11 -14 -8 -23 -8 -31 0 -15 15 -80 14
-96 -1 -11 -10 -14 -10 -18 0 -6 16 -42 16 -49 -1z"/>
<path d="M1730 3080 c-41 -41 -20 -81 55 -104 40 -13 55 -23 55 -36 0 -16 -18
-30 -40 -30 -5 0 -21 11 -36 25 -30 28 -47 28 -52 1 -13 -65 151 -84 180 -21
20 44 3 72 -59 95 -74 27 -76 29 -62 46 16 20 43 17 64 -6 22 -24 43 -26 52
-3 18 47 -115 75 -157 33z"/>
<path d="M2804 3077 c-20 -18 -28 -34 -31 -73 -5 -62 11 -94 61 -118 32 -16
44 -17 76 -7 60 18 83 54 78 120 -4 44 -10 59 -32 78 -38 32 -114 32 -152 0z
m116 -32 c16 -19 15 -92 -1 -111 -6 -8 -24 -14 -40 -14 -33 0 -49 23 -49 70 0
47 16 70 49 70 16 0 34 -7 41 -15z"/>
<path d="M3036 3084 c-9 -24 -7 -177 3 -192 5 -8 17 -12 27 -10 16 3 19 14 22
73 3 74 19 105 54 105 25 0 38 -38 38 -115 0 -62 9 -78 38 -68 8 3 12 32 12
97 0 77 -3 96 -18 109 -21 20 -74 22 -105 6 -16 -9 -22 -9 -25 0 -6 17 -39 13
-46 -5z"/>
<path d="M3814 3087 c-3 -8 -3 -56 -2 -108 3 -87 5 -94 24 -97 15 -2 23 4 28
20 8 30 8 162 0 182 -7 19 -43 21 -50 3z"/>
<path d="M3945 3077 c-20 -16 -28 -35 -32 -67 -9 -87 32 -134 115 -132 39 0
51 5 74 31 23 26 28 41 28 82 0 44 -4 55 -31 80 -41 38 -114 41 -154 6z m120
-50 c23 -57 2 -107 -46 -107 -33 0 -49 23 -49 74 0 69 70 93 95 33z"/>
<path d="M4175 3078 c-3 -13 -5 -61 -3 -108 3 -83 4 -85 28 -85 24 0 25 3 30
78 5 79 14 97 52 97 27 0 38 -32 38 -108 0 -69 8 -85 38 -75 8 3 12 32 12 97
0 77 -3 96 -18 109 -21 20 -74 22 -105 6 -16 -9 -22 -9 -25 0 -7 20 -41 12
-47 -11z"/>
<path d="M4442 3084 c-30 -21 -30 -68 1 -89 12 -8 39 -20 60 -26 41 -11 59
-36 36 -50 -22 -14 -35 -11 -69 17 -28 24 -33 25 -46 12 -14 -14 -13 -18 8
-43 20 -23 32 -27 76 -28 41 -1 57 4 77 23 47 44 21 93 -60 114 -38 9 -50 17
-50 32 0 27 33 30 67 4 47 -35 78 -10 38 30 -25 25 -105 27 -138 4z"/>
<path d="M1035 2708 c-3 -13 -4 -81 -3 -153 3 -126 4 -130 26 -133 21 -3 22 0
22 63 l0 66 42 -3 c39 -3 44 -7 82 -65 36 -54 45 -62 74 -62 l32 -1 -37 58
c-21 31 -44 61 -51 66 -11 6 -6 13 17 27 35 21 47 57 34 102 -11 41 -52 56
-155 56 -72 1 -78 -1 -83 -21z m186 -39 c5 -8 9 -21 9 -29 0 -33 -19 -44 -84
-48 l-66 -4 0 44 c0 25 3 48 8 52 12 13 123 1 133 -15z"/>
<path d="M2960 2705 c0 -18 5 -25 20 -25 15 0 20 7 20 25 0 18 -5 25 -20 25
-15 0 -20 -7 -20 -25z"/>
<path d="M3488 2576 c-3 -154 -3 -155 20 -159 l22 -4 0 158 c0 151 -1 159 -20
159 -18 0 -19 -9 -22 -154z"/>
<path d="M4029 2728 c-1 -2 -3 -13 -4 -25 -2 -18 3 -23 21 -23 19 0 24 5 24
25 0 18 -5 25 -20 25 -11 0 -21 -1 -21 -2z"/>
<path d="M4930 2715 c-7 -9 -13 -29 -12 -45 0 -23 -4 -30 -19 -30 -10 0 -19
-7 -19 -15 0 -8 7 -15 15 -15 12 0 15 -17 15 -95 0 -95 0 -95 25 -95 25 0 25
0 25 95 0 88 1 95 20 95 11 0 20 7 20 15 0 8 -9 15 -20 15 -15 0 -20 7 -20 25
0 20 5 25 25 25 18 0 25 5 25 20 0 16 -7 20 -34 20 -18 0 -39 -7 -46 -15z"/>
<path d="M5210 2712 c-49 -24 -75 -74 -74 -142 0 -73 24 -116 77 -141 56 -25
103 -24 157 4 l45 22 0 60 0 60 -65 0 c-53 0 -65 -3 -68 -17 -3 -13 6 -17 40
-20 39 -3 43 -6 46 -31 7 -61 -125 -72 -163 -13 -56 85 -8 196 84 196 31 0 81
-37 81 -59 0 -5 9 -7 20 -4 37 10 19 63 -30 88 -39 20 -107 19 -150 -3z"/>
<path d="M5520 2723 c-34 -12 -50 -37 -50 -75 0 -51 22 -71 102 -92 73 -20 95
-42 73 -74 -8 -11 -26 -23 -40 -26 -33 -8 -95 18 -102 44 -8 30 -43 26 -43 -5
0 -34 39 -72 84 -80 86 -17 156 24 156 90 0 44 -25 71 -82 85 -64 16 -108 38
-108 54 0 24 30 46 63 46 38 0 50 -7 66 -37 6 -13 21 -23 31 -23 30 0 25 37
-9 71 -25 24 -37 29 -78 28 -26 0 -55 -3 -63 -6z"/>
<path d="M5724 2716 c-10 -25 5 -36 52 -36 l44 0 0 -130 0 -130 25 0 25 0 0
129 0 130 48 3 c39 3 47 6 47 23 0 19 -8 20 -118 23 -96 2 -118 0 -123 -12z"/>
<path d="M1588 2709 c-11 -6 -18 -22 -18 -39 0 -20 -5 -30 -15 -30 -8 0 -15
-7 -15 -15 0 -8 7 -15 15 -15 12 0 15 -16 15 -84 0 -103 19 -131 73 -110 20 7
10 41 -14 47 -16 4 -19 15 -19 76 0 64 2 71 20 71 11 0 20 7 20 15 0 8 -9 15
-19 15 -16 0 -20 8 -23 39 -3 35 -5 38 -20 30z"/>
<path d="M1383 2643 c-25 -5 -66 -51 -57 -64 10 -16 43 -9 54 12 14 25 67 23
84 -3 14 -23 9 -26 -54 -38 -63 -12 -90 -33 -90 -70 0 -45 22 -64 71 -63 24 1
63 3 86 3 l42 2 -6 96 c-3 55 -11 103 -18 110 -13 15 -76 23 -112 15z m87
-142 c0 -42 -73 -68 -100 -36 -23 28 16 52 83 51 9 0 17 -7 17 -15z"/>
<path d="M1721 2637 c-33 -20 -50 -55 -51 -105 0 -76 40 -122 108 -122 40 0
91 38 92 68 0 20 -44 14 -58 -8 -22 -36 -81 -19 -96 28 -7 22 -6 22 75 22 l82
0 -6 41 c-3 23 -14 51 -25 61 -25 25 -90 33 -121 15z m93 -49 c24 -34 20 -38
-39 -38 -59 0 -70 13 -39 44 22 23 60 20 78 -6z"/>
<path d="M1950 2641 c-35 -10 -55 -49 -41 -83 8 -21 22 -31 65 -43 62 -18 74
-29 56 -50 -18 -21 -57 -18 -77 5 -22 25 -53 26 -53 2 0 -39 59 -68 116 -58
44 9 64 30 64 70 0 40 -9 48 -78 71 -39 12 -52 21 -50 33 4 22 51 27 71 8 9
-9 23 -16 31 -16 19 0 21 33 4 48 -18 14 -78 22 -108 13z"/>
<path d="M2273 2635 c-18 -8 -33 -18 -33 -24 0 -5 -3 -16 -6 -25 -9 -24 38
-21 54 4 15 24 54 26 76 4 25 -25 19 -32 -31 -40 -27 -3 -60 -13 -74 -20 -48
-24 -46 -89 2 -115 23 -12 86 -4 107 13 8 7 12 7 12 -1 0 -6 10 -11 23 -11 22
0 23 3 19 73 -5 121 -9 134 -44 146 -41 14 -66 13 -105 -4z m107 -121 c0 -11
-23 -49 -34 -56 -37 -25 -91 7 -65 38 14 17 99 33 99 18z"/>
<path d="M2508 2643 l-38 -4 0 -110 c0 -106 1 -109 23 -109 21 0 22 3 19 69
-4 81 8 111 44 111 28 0 44 28 23 41 -8 5 -18 8 -24 7 -5 -1 -27 -3 -47 -5z"/>
<path d="M2663 2643 c-63 -12 -88 -145 -38 -199 17 -18 38 -28 69 -31 40 -5
48 -2 76 25 35 35 37 48 10 55 -13 3 -24 -3 -35 -19 -20 -31 -55 -31 -83 -1
-38 40 -29 47 58 47 l80 0 0 31 c0 41 -15 66 -50 84 -29 15 -44 16 -87 8z m77
-53 c32 -32 24 -40 -40 -40 -33 0 -60 4 -60 8 0 16 41 52 60 52 11 0 29 -9 40
-20z"/>
<path d="M3127 2644 c-4 -4 -23 -7 -42 -6 l-35 1 0 -113 c0 -109 1 -114 20
-109 18 5 20 14 20 77 0 77 17 116 50 116 38 0 50 -27 50 -111 0 -72 2 -79 20
-79 19 0 20 7 20 93 0 59 -5 99 -12 109 -14 18 -79 34 -91 22z"/>
<path d="M3318 2633 c-69 -44 -60 -183 13 -213 56 -23 129 9 129 57 0 31 -27
30 -52 -2 -38 -49 -93 -15 -92 56 2 68 54 102 91 59 20 -23 53 -27 53 -6 0 49
-92 81 -142 49z"/>
<path d="M3847 2638 c-29 -11 -43 -43 -33 -82 4 -18 17 -27 58 -38 57 -16 83
-42 58 -58 -24 -16 -56 -11 -75 10 -10 11 -27 20 -37 20 -15 0 -18 -5 -12 -22
10 -35 23 -47 60 -54 88 -16 157 53 107 108 -9 10 -40 25 -70 34 -52 15 -68
36 -37 48 28 11 49 6 67 -14 17 -21 47 -17 47 5 0 21 -50 55 -79 54 -14 0 -38
-5 -54 -11z"/>
<path d="M4373 2640 c-74 -30 -80 -169 -9 -216 37 -24 104 -14 133 21 13 14
23 30 23 36 0 17 -45 9 -63 -11 -9 -11 -26 -20 -37 -20 -23 0 -60 33 -60 55 0
12 16 15 80 15 78 0 80 1 80 25 0 40 -21 73 -55 90 -37 17 -59 18 -92 5z m81
-46 c31 -31 20 -44 -39 -44 -59 0 -67 8 -35 40 24 24 53 26 74 4z"/>
<path d="M4713 2634 c-72 -36 -71 -174 2 -208 41 -20 68 -20 104 -2 34 18 51
54 51 111 0 85 -83 137 -157 99z m93 -45 c40 -44 12 -139 -41 -139 -40 0 -60
38 -56 107 2 50 62 70 97 32z"/>
<path d="M711 2596 c-43 -44 -43 -44 -26 -68 10 -12 32 -34 48 -47 l30 -25 44
48 44 48 -43 44 c-24 24 -45 44 -48 44 -3 0 -25 -20 -49 -44z"/>
<path d="M2960 2530 c0 -103 1 -110 20 -110 19 0 20 7 20 110 0 103 -1 110
-20 110 -19 0 -20 -7 -20 -110z"/>
<path d="M3580 2550 c0 -84 2 -93 26 -117 22 -22 31 -24 62 -19 20 4 51 8 67
9 l30 2 0 105 c0 101 -1 105 -22 108 -22 3 -23 1 -23 -76 0 -64 -4 -82 -18
-95 -10 -10 -26 -17 -34 -17 -31 0 -40 28 -39 110 1 79 1 80 -24 80 -25 0 -25
0 -25 -90z"/>
<path d="M4020 2530 l0 -110 25 0 25 0 0 110 0 110 -25 0 -25 0 0 -110z"/>
<path d="M4100 2633 c0 -4 16 -54 37 -110 32 -87 41 -103 60 -103 18 0 27 14
53 83 17 45 35 92 40 105 13 31 13 32 -13 32 -18 0 -26 -10 -40 -52 -42 -122
-37 -120 -67 -32 -21 64 -31 80 -48 82 -12 2 -22 0 -22 -5z"/>
<path d="M1010 2249 c0 -6 17 -76 37 -155 33 -129 39 -143 61 -147 13 -2 25 1
28 7 2 6 17 63 34 126 30 110 40 138 40 110 0 -7 14 -64 31 -126 29 -105 33
-114 55 -114 13 0 24 2 24 5 0 3 18 70 40 150 22 80 40 147 40 150 0 3 -10 5
-23 5 -21 0 -25 -10 -52 -122 l-29 -122 -17 64 c-43 169 -49 181 -77 178 -25
-3 -29 -10 -57 -115 -16 -62 -32 -113 -35 -113 -3 0 -17 51 -31 113 -22 99
-28 112 -47 115 -12 2 -22 -2 -22 -9z"/>
<path d="M4218 2105 l-3 -155 25 0 c24 0 25 2 22 61 -2 33 -1 71 2 84 9 34 42
50 73 36 24 -11 24 -14 21 -96 -3 -82 -2 -85 20 -85 21 0 22 3 22 90 0 83 -2
93 -25 115 -26 27 -49 31 -89 15 -26 -9 -26 -9 -26 40 0 43 -3 50 -20 50 -18
0 -19 -9 -22 -155z"/>
<path d="M4874 2250 c-56 -22 -95 -116 -80 -187 29 -131 193 -168 252 -57 17
30 17 36 4 44 -23 15 -28 12 -45 -20 -20 -39 -47 -52 -91 -44 -52 10 -76 52
-71 127 4 69 26 96 84 104 35 5 42 2 66 -26 38 -46 86 -37 53 10 -36 52 -112
73 -172 49z"/>
<path d="M6680 2236 c0 -23 5 -25 48 -28 l47 -3 0 -125 c0 -69 4 -128 9 -131
4 -4 16 -5 25 -2 14 3 16 20 13 133 l-3 130 50 0 c48 0 51 2 51 25 l0 25 -120
0 -120 0 0 -24z"/>
<path d="M2408 2239 c-11 -6 -18 -22 -18 -39 0 -20 -5 -30 -15 -30 -8 0 -15
-7 -15 -15 0 -8 7 -15 15 -15 12 0 15 -17 15 -90 0 -80 2 -90 21 -100 31 -17
68 -5 62 20 -3 11 -14 20 -24 20 -17 0 -19 8 -19 75 0 68 2 75 20 75 11 0 20
7 20 15 0 8 -9 15 -19 15 -16 0 -20 8 -23 39 -3 35 -5 38 -20 30z"/>
<path d="M4128 2239 c-11 -6 -18 -22 -18 -39 0 -20 -5 -30 -15 -30 -8 0 -15
-7 -15 -15 0 -8 7 -15 15 -15 12 0 15 -17 15 -90 0 -86 1 -91 24 -102 14 -6
32 -8 40 -5 23 9 20 38 -4 44 -18 5 -20 14 -20 79 0 67 2 74 20 74 11 0 20 7
20 15 0 8 -9 15 -19 15 -16 0 -20 8 -23 39 -3 35 -5 38 -20 30z"/>
<path d="M712 2138 c-23 -22 -42 -44 -42 -47 0 -4 20 -27 45 -51 l45 -44 45
46 46 45 -42 47 c-23 25 -44 46 -48 46 -4 0 -26 -19 -49 -42z"/>
<path d="M1454 2169 c-25 -7 -54 -42 -54 -64 0 -14 47 -2 58 15 21 34 92 22
92 -16 0 -7 -13 -15 -30 -18 -16 -3 -44 -9 -60 -12 -41 -8 -60 -29 -60 -69 0
-57 61 -83 123 -51 15 8 27 11 27 5 0 -5 10 -9 23 -9 21 0 22 3 19 83 -4 114
-7 123 -43 136 -37 13 -52 13 -95 0z m96 -132 c0 -22 -39 -57 -63 -57 -36 0
-54 16 -41 37 17 27 104 44 104 20z"/>
<path d="M1702 2171 c-7 -4 -24 -6 -37 -3 -24 4 -24 4 -27 -107 -3 -109 -3
-111 20 -111 21 0 22 4 22 64 0 85 12 116 45 116 29 0 45 27 24 41 -17 11 -30
11 -47 0z"/>
<path d="M1842 2171 c-7 -4 -24 -6 -37 -3 -24 4 -24 4 -27 -107 l-3 -111 25 0
c24 0 25 2 22 62 -5 86 9 118 48 118 23 0 30 5 30 19 0 26 -32 39 -58 22z"/>
<path d="M1964 2170 c-29 -9 -60 -51 -47 -64 13 -13 39 -5 51 15 16 25 69 23
86 -4 14 -23 -6 -37 -52 -37 -35 0 -72 -15 -84 -34 -4 -6 -8 -25 -8 -43 0 -55
62 -80 123 -49 15 8 27 11 27 5 0 -5 12 -9 26 -9 20 0 25 4 20 16 -3 9 -6 50
-6 93 0 46 -5 84 -12 94 -16 20 -82 29 -124 17z m96 -135 c0 -42 -74 -72 -100
-40 -16 20 1 42 38 48 53 8 62 7 62 -8z"/>
<path d="M2225 2171 c-11 -5 -32 -6 -47 -4 l-28 6 0 -112 c0 -108 1 -111 23
-111 20 0 22 4 18 51 -5 75 6 118 33 130 17 8 30 8 45 0 19 -11 21 -20 21 -95
0 -74 2 -84 19 -89 11 -3 21 -3 23 -2 8 8 -8 205 -17 214 -15 15 -67 22 -90
12z"/>
<path d="M2860 2163 c-41 -21 -55 -63 -21 -63 11 0 25 9 31 20 18 33 90 24 90
-11 0 -12 -9 -20 -27 -24 -76 -15 -108 -30 -117 -58 -22 -61 56 -107 124 -73
17 8 30 10 30 5 0 -5 10 -9 23 -9 22 0 22 2 17 95 -4 68 -9 99 -21 110 -25 25
-88 29 -129 8z m100 -131 c0 -28 -34 -54 -67 -50 -22 2 -28 8 -28 28 0 19 6
26 30 31 53 12 65 10 65 -9z"/>
<path d="M3090 2169 c-31 -13 -40 -27 -40 -61 0 -32 25 -51 88 -68 30 -8 42
-16 42 -29 0 -35 -62 -43 -82 -11 -13 21 -58 28 -58 9 0 -24 59 -69 90 -69 37
0 85 23 94 45 19 51 -2 78 -80 101 -53 15 -70 36 -38 48 26 10 51 7 64 -9 15
-19 50 -20 50 -2 0 38 -81 67 -130 46z"/>
<path d="M3457 2173 c-4 -3 -23 -6 -42 -5 l-35 1 0 -155 c0 -155 0 -155 22
-152 20 3 22 8 19 52 -2 44 -1 48 16 41 38 -16 59 -15 90 4 51 32 67 132 29
183 -20 27 -83 47 -99 31z m57 -55 c22 -30 20 -91 -2 -118 -25 -30 -68 -21
-83 18 -31 79 41 163 85 100z"/>
<path d="M3641 2154 c-60 -54 -52 -167 13 -198 42 -20 69 -20 106 -1 26 13 50
42 50 59 0 14 -43 4 -62 -14 -12 -11 -31 -20 -43 -20 -25 0 -55 29 -55 53 0
15 12 17 81 17 l82 0 -6 37 c-8 48 -42 81 -93 89 -36 5 -45 3 -73 -22z m102
-28 c9 -7 17 -21 17 -30 0 -13 -11 -16 -55 -16 -59 0 -63 4 -39 38 17 25 50
28 77 8z"/>
<path d="M3860 2171 c-12 -5 -15 -27 -15 -114 0 -104 1 -107 23 -107 21 0 22
4 22 71 0 83 11 109 46 109 28 0 44 28 23 41 -16 11 -61 2 -70 -13 -5 -7 -8
-5 -10 4 -3 9 -10 13 -19 9z"/>
<path d="M4502 2173 c-49 -9 -78 -109 -52 -177 11 -30 57 -56 99 -56 32 0 91
43 91 66 0 21 -43 17 -58 -6 -12 -20 -47 -26 -68 -12 -11 7 -34 45 -34 56 0 3
36 6 80 6 78 0 80 1 80 24 0 42 -18 74 -49 91 -30 15 -45 16 -89 8z m78 -53
c11 -11 20 -24 20 -29 0 -4 -27 -9 -61 -10 -63 -2 -66 1 -31 42 20 23 47 22
72 -3z"/>
<path d="M5153 2173 c-39 -8 -63 -49 -63 -110 0 -65 11 -88 50 -108 92 -48
182 41 150 148 -17 58 -67 84 -137 70z m77 -53 c42 -42 15 -140 -40 -140 -10
0 -29 10 -40 23 -18 18 -21 31 -17 66 7 67 55 93 97 51z"/>
<path d="M5392 2164 c-12 -8 -22 -10 -22 -5 0 6 -9 11 -20 11 -19 0 -20 -7
-20 -110 0 -91 3 -110 15 -110 8 0 18 -1 22 -2 5 -2 6 14 5 35 -2 21 -1 61 3
88 6 40 12 53 31 61 42 19 54 -3 54 -98 0 -80 1 -84 23 -84 20 0 22 4 18 51
-5 76 6 118 34 131 43 19 55 -2 55 -98 0 -80 1 -84 23 -84 22 0 22 2 19 97 -2
54 -8 103 -13 110 -18 21 -68 26 -95 8 -22 -14 -27 -14 -46 0 -28 19 -58 19
-86 -1z"/>
<path d="M5757 2174 c-4 -4 -23 -7 -42 -6 l-35 1 0 -154 c0 -148 1 -155 20
-155 17 0 20 7 20 50 0 47 1 50 19 40 77 -40 153 46 131 147 -5 20 -17 44 -27
54 -20 20 -74 35 -86 23z m57 -56 c19 -26 21 -71 5 -101 -22 -42 -48 -48 -79
-17 -41 41 -16 140 35 140 13 0 31 -10 39 -22z"/>
<path d="M5970 2173 c-33 -6 -60 -31 -60 -55 0 -25 36 -23 50 3 14 25 67 23
84 -3 14 -23 9 -26 -54 -38 -30 -6 -62 -18 -72 -27 -40 -36 -8 -113 47 -113
14 0 41 7 60 14 19 8 35 11 35 5 0 -5 11 -9 24 -9 22 0 23 2 15 43 -4 23 -8
67 -9 98 0 36 -5 61 -14 68 -17 14 -71 21 -106 14z m80 -141 c0 -28 -34 -54
-67 -50 -38 4 -41 49 -3 59 47 13 70 10 70 -9z"/>
<path d="M6146 2173 c-3 -4 -6 -55 -6 -115 l0 -108 25 0 c25 0 25 1 25 78 0
64 4 82 18 95 10 10 25 17 33 17 30 0 39 -24 39 -107 0 -82 0 -83 25 -83 25 0
25 1 25 83 0 45 -6 93 -13 107 -17 34 -66 47 -106 27 -17 -9 -31 -12 -31 -7 0
10 -26 20 -34 13z"/>
<path d="M6955 2171 c-55 -24 -80 -106 -52 -173 12 -29 24 -39 56 -49 50 -15
109 4 128 41 11 22 10 25 -8 28 -12 2 -31 -6 -43 -17 -12 -12 -31 -21 -43 -21
-23 0 -53 29 -53 53 0 15 12 17 81 17 l81 0 -7 38 c-3 20 -16 47 -29 60 -24
25 -80 36 -111 23z m77 -48 c33 -30 23 -43 -37 -43 -61 0 -73 16 -33 44 29 20
47 20 70 -1z"/>
<path d="M7149 2172 c-14 -3 -17 -20 -18 -113 l-2 -109 26 0 c25 0 25 1 25 78
0 84 9 102 47 102 23 0 42 24 29 37 -11 12 -68 6 -76 -7 -6 -10 -9 -10 -11 1
-2 8 -11 13 -20 11z"/>
<path d="M7338 2166 c-16 -8 -28 -11 -28 -5 0 5 -9 9 -20 9 -19 0 -20 -7 -20
-110 l0 -110 25 0 c25 0 25 1 25 79 0 80 12 111 44 111 27 0 36 -26 36 -107 0
-82 0 -83 25 -83 25 0 25 1 25 83 0 78 2 84 24 97 47 25 56 10 56 -90 0 -89 0
-90 25 -90 25 0 25 1 25 83 0 93 -13 127 -54 142 -21 7 -34 6 -58 -8 -27 -15
-32 -15 -51 -2 -27 19 -44 19 -79 1z"/>
<path d="M7652 2170 c-32 -13 -48 -54 -34 -84 8 -17 26 -29 66 -40 61 -18 74
-30 56 -51 -18 -21 -57 -18 -80 5 -23 23 -50 27 -50 7 0 -26 32 -56 65 -63 69
-13 115 15 115 70 0 40 -10 50 -75 69 -37 10 -50 19 -50 33 0 24 47 31 65 10
13 -17 60 -22 60 -7 0 39 -88 72 -138 51z"/>
<path d="M2480 2166 c0 -2 18 -52 40 -111 38 -101 40 -109 25 -131 -8 -13 -25
-24 -36 -24 -14 0 -19 -5 -17 -17 5 -26 50 -28 72 -4 16 17 116 262 116 283 0
4 -9 8 -19 8 -15 0 -25 -18 -46 -75 -15 -41 -31 -73 -35 -70 -3 2 -17 36 -31
75 -20 59 -27 70 -46 70 -13 0 -23 -2 -23 -4z"/>
<path d="M6360 2163 c0 -4 18 -55 40 -113 37 -96 39 -106 25 -127 -9 -13 -24
-23 -35 -23 -13 0 -20 -7 -20 -20 0 -15 7 -20 29 -20 16 0 36 7 44 15 8 8 35
69 60 137 25 68 49 131 52 141 6 13 2 17 -16 17 -21 0 -27 -10 -48 -75 -14
-41 -28 -75 -31 -75 -4 0 -18 33 -31 73 -20 58 -29 73 -47 75 -12 2 -22 0 -22
-5z"/>
</g>
</svg>
